<?xml version="1.0" encoding="iso-8859-1"?>
<!-- Generator: Adobe Illustrator 19.0.0, SVG Export Plug-In . SVG Version: 6.00 Build 0)  -->
<svg version="1.1" id="Capa_1" xmlns="http://www.w3.org/2000/svg" xmlns:xlink="http://www.w3.org/1999/xlink" x="0px" y="0px"
	 viewBox="0 0 511.997 511.997" style="enable-background:new 0 0 511.997 511.997;" xml:space="preserve">
<g>
	<g>
		<path d="M375.322,219.393c-4.871-6.603-15.282-9.677-32.764-9.677c-39.802,0-50.909,12.195-60.161,42.114
			c-1.622,5.247,2.775,10.414,8.219,9.643l47.313-6.716c23.482-3.377,36.004-10.086,39.404-21.112
			C379.407,226.928,377.385,222.187,375.322,219.393z M363.001,229.219C363,229.22,363,229.221,363,229.222
			c-0.365,1.183-3.391,7.26-27.191,10.684l-35.156,4.99c5.52-12.8,11.901-20.179,41.906-20.179c16.436,0,20.155,3.041,20.637,3.521
			C363.192,228.381,363.163,228.693,363.001,229.219z"/>
	</g>
</g>
<g>
	<g>
		<path d="M509.788,197.49c-5.982-8.715-15.496-8.5-40.29-8.5c-27.033,0-47.64,6.541-61.51,19.483
			c-0.731-1.229-1.574-2.405-2.526-3.521c-9.201-10.78-28.478-16.02-58.934-16.02c-29.089,0-52.223,6.747-69.238,20.134
			l-0.446-3.462c-1.276-9.853-9.682-15.304-18.747-15.917c-3.934-0.266-7.023-0.456-10.275-0.584
			c-4.158-0.161-7.627,3.06-7.789,7.199c-0.163,4.139,3.06,7.626,7.199,7.789c16.521,0.65,14.414,0.941,15.426,8.79
			c-35.276-2.892-73.945-2.432-86.728,38.954c-16.017,51.988,19.488,50.258,73.152,46.652c-1.221,6.045-0.154,6.437-8.28,7.845
			c-6.245,1.085-20.676,1.733-38.605,1.733c-26.633,0-49.727-5.985-48.861-32.502c0.283-8.665-12.054-10.776-14.653-2.49
			l-8.406,26.796c-0.42,1.345-0.896,2.869-9.132,4.25c-18.996,3.191-90.771,9.878-103.925-8.024
			c-0.95-1.292-3.84-5.225-0.939-14.495c4.499-14.348,22.959-23.682,54.838-27.74c19.666-2.424,50.528-7.528,51.528-7.758
			c5.278-1.204,9.047-4.667,10.605-9.719c2.446-7.81,0.21-13.191-2.096-16.33c-10.109-13.758-39.426-11.217-82.335-7.31
			c1.083-3.457,1.036-6.008,8.562-6.943c9.513-1.242,25.675-1.871,48.039-1.871c28.218,0,39.127,6.204,43.309,11.409
			c3.313,4.122,4.127,9.735,2.491,17.161c-0.791,3.588,1.134,7.22,4.546,8.581c3.414,1.36,7.309,0.049,9.204-3.099
			c10.32-17.144,26.334-27.568,48.958-31.869c4.069-0.773,6.741-4.7,5.967-8.769c-0.773-4.069-4.701-6.742-8.769-5.968
			c-18.839,3.581-34.273,11.152-46.108,22.587c-8.082-21.409-36.764-25.034-59.599-25.034c-23.333,0-39.682,0.653-49.934,1.991
			c-13.358,1.659-18.32,8.865-20.131,14.626c-3.189,10.174-5.453,14.326-2.01,19.007c2.357,3.203,6.538,4.271,9.747,3.833
			c3.55-0.443,38.283-3.674,54.496-3.674c17.861,0,21.162,3.791,21.479,4.223c0.396,0.54,0.249,1.594-0.018,2.572
			c-21.256,3.516-37.541,5.958-49.794,7.468c-38.779,4.935-60.788,17.41-67.289,38.139c-3.43,10.961-2.365,20.335,3.166,27.861
			c8.864,12.07,28.655,17.935,60.502,17.935c22.706,0,42.218-1.344,57.993-3.994c8.999-1.509,17.768-4.319,20.965-14.564
			l0.759-2.421c1.184,1.724,2.516,3.351,3.995,4.879c10.589,10.94,27.875,16.258,52.849,16.258c41.098,0,53.281-1.939,58.803-12.129
			c11.105,8.034,27.661,11.971,50.109,11.971c46.042,0,53.738-1.509,59.902-5.934c2.157,4.05,6.289,5.745,10.873,5.745h24.556
			c6.783,0,11.855-3.55,13.568-9.5l8.439-29.391c1.143-3.981-1.157-8.136-5.139-9.279c-3.984-1.145-8.135,1.157-9.279,5.139
			l-8.049,28.03h-19.797l18.643-64.924c1.013-3.527-0.676-7.27-3.991-8.846c-3.319-1.576-7.285-0.518-9.378,2.496
			c-7.708,11.096-23.923,18.295-48.199,21.398l-59.341,7.607c-3.632,0.465-6.396,3.486-6.54,7.145
			c-0.49,12.516,5.974,21.042,15.516,24.403c14.864,5.413,52.63,2.463,71.399,1.564c-1.747,5.668-1.646,5.859-1.646,5.859
			c-0.162,0.527-2.19,1.242-2.71,1.419c-1.446,0.484-9.24,2.065-48.826,2.065c-42.182,0-46.292-15.153-49.227-17.508
			c-0.094-3.297-5.861-10.75,1.085-33.246c11.059-35.814,38.391-53.223,83.561-53.223c31.69,0,43.335,5.85,47.523,10.758
			c1.391,1.629,3.14,4.428,2.27,9.895c-1.297,8.154,9.738,12.102,13.894,4.945c9.843-16.947,29.788-25.539,59.283-25.539
			c16.54,0,24.261,0.237,27.184,1.354l-3.043,8.276c-7.025-0.227-17.499-0.342-31.17-0.342c-19.487,0-31.322,6.801-35.175,20.214
			l-3.215,11.195c-1.143,3.981,1.157,8.136,5.139,9.279c3.979,1.145,8.136-1.157,9.279-5.138l3.215-11.195
			c0.734-2.558,2.686-9.354,20.756-9.354c14.302,0,25.012,0.125,31.84,0.374c6.131,0.375,10.965-3.233,12.973-8.665
			C510.997,209.88,514.359,204.17,509.788,197.49z M293.484,279.349c54.968-7.047,71.482-7.812,90.263-17.505l-6.589,22.948
			c-1.521-0.956-3.618-1.655-6.547-1.548C323.567,285.5,297.969,287.351,293.484,279.349z M248.633,252.73
			c-3.597,11.648-4.807,22.029-3.624,30.999c-9.24,0.621-50.47,4.537-56.823-4.334c-0.828-1.159-3.124-6.252,2.077-23.135
			c9.561-30.957,37.738-31.046,69.934-28.526C255.378,235.043,251.521,243.376,248.633,252.73z"/>
	</g>
</g>
<g>
	<g>
		<path d="M124.143,253.858c-1.653-1.961-4.192-2.941-6.735-2.6l-56.779,7.626c-24.75,3.334-31.229,22.457-23.808,32.562
			c5.346,7.28,17.02,10.527,37.85,10.527c14.893,0,26.089-0.619,34.229-1.892c2.818-0.44,5.142-2.442,5.997-5.164l10.667-33.98
			C126.331,258.489,125.795,255.819,124.143,253.858z M102.019,285.853c-6.937,0.744-16.106,1.12-27.348,1.12
			c-22.401,0-25.742-4.337-25.742-4.337c-0.16-1.02,0.9-7.158,13.701-8.883l45.09-6.056L102.019,285.853z"/>
	</g>
</g>
<g>
</g>
<g>
</g>
<g>
</g>
<g>
</g>
<g>
</g>
<g>
</g>
<g>
</g>
<g>
</g>
<g>
</g>
<g>
</g>
<g>
</g>
<g>
</g>
<g>
</g>
<g>
</g>
<g>
</g>
</svg>
