<?xml version="1.0" encoding="iso-8859-1"?>
<!-- Generator: Adobe Illustrator 19.0.0, SVG Export Plug-In . SVG Version: 6.00 Build 0)  -->
<svg version="1.1" id="Capa_1" xmlns="http://www.w3.org/2000/svg" xmlns:xlink="http://www.w3.org/1999/xlink" x="0px" y="0px"
	 viewBox="0 0 512 512" style="enable-background:new 0 0 512 512;" xml:space="preserve">
<g>
	<g>
		<path d="M198.164,266.164l-15.446-41.525c-2.419-6.506-12.01-6.546-14.411,0.049l-15.115,41.525
			c-1.78,4.893,1.853,10.066,7.049,10.066h30.893C196.355,276.279,199.987,271.061,198.164,266.164z M170.954,261.277l4.643-12.755
			l4.744,12.755H170.954z"/>
	</g>
</g>
<g>
	<g>
		<path d="M505.101,266.024c-4.134-0.329-7.747,2.744-8.079,6.874c-1.207,14.988-9.99,24.277-49.986,24.277
			c-37.012,0-50.13-7.231-50.13-27.633v-27.085c0-20.401,13.118-27.633,50.13-27.633c39.995,0,48.778,9.288,49.985,24.274
			c0.333,4.13,3.951,7.216,8.079,6.874c4.13-0.333,7.207-3.949,6.874-8.079c-2.636-32.722-32.595-38.07-64.939-38.07
			c-20.902,0-34.721,2.248-44.812,7.291c-5.301,2.649-9.558,6.107-12.794,10.329v-9.352c0-4.144-3.358-7.501-7.501-7.501h-33.214
			c-4.143,0-7.501,3.357-7.501,7.501v9.491c-3.251-6.347-8.708-10.971-16.366-13.798c-10.736-3.963-24.627-3.963-38.059-3.963
			c-28.194,0-60.149,0-60.149,36.76c0,13.659,4.196,23.075,12.803,28.651c-5.852,0-6.585-0.144-8.303,0.558l-23.894-60.458
			c-1.131-2.862-3.897-4.744-6.976-4.744h-50.49c-3.09,0-5.865,1.896-6.988,4.775l-21.759,55.789
			c-2.341-1.368-0.392-1.026-37.99-1.026c-4.143,0-7.501,3.357-7.501,7.501v2.805c0,2.564-0.469,3.277-0.466,3.277
			c-1.779,1.635-22.354,1.979-24.61-0.672c-1.11-1.3-1.11-7.217-1.11-10.396c0-14.242-0.298-22.46,1.086-23.845
			c2.344-2.347,19.883-2.087,23.624-0.776c0.926,0.324,1.155,0.439,1.313,1.298v3.137c0,4.143,3.358,7.501,7.501,7.501h34.214
			c4.143,0,7.501-3.357,7.501-7.501c0-13.363-1.694-26.02-12.48-34.113c-8.582-6.44-20.909-7.795-31.836-8.272
			c-4.138-0.178-7.64,3.028-7.82,7.168c-0.181,4.138,3.028,7.64,7.167,7.82c21.84,0.951,28.535,5.013,29.768,19.897H89.746
			c-3.561-12.905-18.173-12.904-27.131-12.904c-23.041,0-28.262,7.586-28.262,25.643c0,27.568-2.974,42.249,28.262,42.249
			c10.752,0,25.131-0.001,27.57-14.815h19.514c-0.251,7.46-1.54,12.073-7.915,16.184c-9.548,6.046-21.858,5.862-35.517,5.862
			c-55.632,0-51.128-8.53-51.128-53.569c0-18.642,7.709-25.7,30.548-27.971c4.122-0.409,7.132-4.083,6.723-8.205
			c-0.41-4.122-4.086-7.143-8.206-6.723c-48.982,4.867-44.067,34.072-44.067,67.684c0,43.785,35.132,43.785,66.13,43.785
			c13.238,0,26.929,0.103,39.085-5.737c0.213,0.594,0.498,1.166,0.863,1.698c1.398,2.045,3.715,3.269,6.193,3.269h34.546
			c3.131,0,5.934-1.945,7.028-4.88l4.327-11.599h34.358l4.608,11.721c1.128,2.869,3.898,4.757,6.981,4.757h33.882
			c2.781,0,5.479-1.55,6.778-4.315c11.044,5.083,25.852,5.085,41.872,5.085c26.837,0,42.907-3.484,52.104-11.3
			c0.858-0.729,1.613-1.485,2.321-2.253v5.283c0,4.143,3.358,7.501,7.501,7.501h33.216c4.143,0,7.501-3.357,7.501-7.501v-9.349
			c12.24,15.975,36.808,17.62,57.604,17.62c19.831,0,33.116-1.998,43.076-6.48c13.301-5.984,20.657-16.614,21.863-31.594
			C512.308,269.974,509.231,266.356,505.101,266.024z M209.367,296.406L209.367,296.406l-4.608-11.721
			c-1.128-2.869-3.897-4.757-6.981-4.757h-44.677c-3.131,0-5.934,1.945-7.028,4.88l-4.327,11.598h-18.361l31.519-80.814h40.263
			l31.939,80.814H209.367z M333.267,273.951c0.008,7.671-0.179,12.173-4.089,15.494c-6.036,5.13-20.298,7.73-42.389,7.73
			c-31.539,0-42.54-1.829-44.831-16.94h17.484c3.683,10.993,16.143,10.992,27.346,10.992c13.249,0,28.265,0,28.265-16.32
			c0-17.838-12.26-15.79-35.26-16.997c-31.899-1.681-38.151-3.558-38.151-21.328c0-17.894,8.017-21.758,45.147-21.758
			c30.308,0,41.321,2.277,42.813,15.786h-17.892c-3.771-10.304-14.842-9.834-24.92-9.834c-11.365,0-26.932,0-26.932,15.677
			c0,8.24,4.223,11.977,7.765,13.661c8.66,4.117,48.062,1.484,60.28,8.391c2.828,1.599,5.367,3.93,5.367,14.741V273.951z
			 M273.362,272.586c14.407,0.823,23.336,1.109,26.681,1.545c0.008,0.372,0.015,0.944-0.007,1.316
			c-3.464,1.03-23.338,1.186-26.459-0.181C273.372,274.442,273.378,273.411,273.362,272.586z M274.864,236.802
			c-0.002-0.051-0.003-0.104-0.004-0.16c4.923-1.238,20.475-1.014,22.91-0.356c0.128,0.774,0.102,1.318,0.122,2.031
			c-0.893-0.053-1.8-0.104-2.714-0.154h0.002C279.803,237.305,276.804,237.197,274.864,236.802z M341.214,250.004
			c-1.583-1.716-3.421-3.166-5.514-4.392c1.812,0,3.46,0.147,5.514-1.121V250.004z M374.43,296.406L374.43,296.406h-18.214v-80.814
			h18.214V296.406z"/>
	</g>
</g>
<g>
	<g>
		<path d="M447.036,222.053c-13.371,0-30.918-0.323-30.918,23.087c0,0.204-0.002,21.65,0.004,21.853
			c0.798,22.953,16.108,22.953,30.914,22.953c14.494,0,30.921,0,30.921-23.214V245.14
			C477.957,222.053,461.53,222.053,447.036,222.053z M462.956,266.731c0,2.677-0.258,6.019-1.489,6.731
			c-3.524,2.04-25.149,2.074-28.624,0.028c-1.233-0.727-1.619-4.122-1.723-6.896c0-19.318-0.498-26.803,1.702-28.092
			c3.494-2.042,25.123-2.006,28.665,0.028C463.393,239.628,462.956,244.657,462.956,266.731z"/>
	</g>
</g>
<g>
</g>
<g>
</g>
<g>
</g>
<g>
</g>
<g>
</g>
<g>
</g>
<g>
</g>
<g>
</g>
<g>
</g>
<g>
</g>
<g>
</g>
<g>
</g>
<g>
</g>
<g>
</g>
<g>
</g>
</svg>
