<?xml version="1.0" encoding="iso-8859-1"?>
<!-- Generator: Adobe Illustrator 19.0.0, SVG Export Plug-In . SVG Version: 6.00 Build 0)  -->
<svg version="1.1" id="Capa_1" xmlns="http://www.w3.org/2000/svg" xmlns:xlink="http://www.w3.org/1999/xlink" x="0px" y="0px"
	 viewBox="0 0 512 512" style="enable-background:new 0 0 512 512;" xml:space="preserve">
<g>
	<g>
		<path d="M399.283,172.499h-28.544c-5.309,0-10.097,3.351-11.914,8.339v-0.001L307.186,322.52
			c-1.415,3.885-0.846,8.227,1.525,11.614c2.37,3.387,6.254,5.409,10.39,5.409h28.545c5.309,0,10.097-3.351,11.914-8.339
			l51.637-141.682C414.207,181.26,408.077,172.499,399.283,172.499z M346.021,324.542h-23.605L372.363,187.5h23.604L346.021,324.542
			z"/>
	</g>
</g>
<g>
	<g>
		<path d="M511.686,238c-4.485-64.532-33.037-124.505-80.397-168.87C383.706,24.55,321.569,0,256.328,0
			c-2.533,0-5.2,0.044-7.928,0.131c-5.191,0.166-9.698,3.439-11.48,8.339l-47.114,129.487c-3.006,8.261,3.124,17.017,11.916,17.017
			h36.874c21.153,0,31.699,15.116,24.466,34.983l-60.902,167.367l-36.679-0.006l61.079-167.664
			c3.01-8.261-3.118-17.022-11.914-17.022h-28.555c-5.31,0-10.098,3.351-11.915,8.339l-64.242,176.344l-36.703-0.003
			c133.45-366.609,30.856-84.666,119.51-328.336c1.672-4.595,0.599-9.634-2.801-13.149c-3.404-3.52-8.41-4.762-13.067-3.245
			c-50.933,16.614-94.746,48.297-126.701,91.622C-56.594,248.955,16.014,458.405,192.16,503.874
			c6.365,1.643,12.872-1.76,15.118-7.937c0.102-0.281,53.636-147.293,124.115-340.963h40.767c4.143,0,7.5-3.358,7.5-7.5
			c0-4.142-3.357-7.5-7.5-7.5h-42.393c-5.312,0-10.102,3.354-11.916,8.344c-40.692,111.816-97.989,269.174-123.948,340.505
			C88.653,460.695,15.329,365.256,15.329,256c0-103.043,64.769-193.917,161.67-227.631
			c-26.132,71.825,14.393-39.516-118.997,326.926c-3.005,8.259,3.121,17.018,11.914,17.018l41.643,0.004
			c5.31,0,10.098-3.352,11.915-8.339l64.242-176.343h23.614l-61.079,167.663c-3.01,8.261,3.118,17.021,11.912,17.022l41.618,0.007
			c0.001,0,0.002,0,0.003,0c5.31,0,10.099-3.352,11.916-8.344l61.458-168.894c10.813-29.705-6.959-55.114-38.563-55.114h-33.561
			l45.443-124.894c127.834-3.294,237.338,95.826,246.245,223.961c0.287,4.133,3.866,7.248,8.003,6.962
			C508.857,245.715,511.974,242.132,511.686,238z"/>
	</g>
</g>
<g>
	<g>
		<path d="M504.724,266.041c-4.122-0.279-7.715,2.828-8.003,6.96c-8.675,124.487-112.475,222.243-237.102,223.975l45.36-124.663
			h64.638c15.449,0,31.691-11.371,36.978-25.886l55.098-151.341c10.817-29.73-6.99-55.112-38.591-55.112h-15.939
			c-4.143,0-7.5,3.358-7.5,7.5c0,4.142,3.357,7.5,7.5,7.5h15.939c21.182,0,31.721,15.122,24.494,34.981l-55.097,151.338
			c-3.107,8.533-13.8,16.018-22.882,16.018h-66.263c-5.311-0.001-10.1,3.353-11.914,8.344l-47.058,129.328
			c-2.983,8.195,3.022,17.014,11.946,17.016c65.233,0,127.363-24.545,174.949-69.116c47.357-44.357,75.912-104.318,80.408-168.84
			C511.972,269.912,508.856,266.329,504.724,266.041z"/>
	</g>
</g>
<g>
</g>
<g>
</g>
<g>
</g>
<g>
</g>
<g>
</g>
<g>
</g>
<g>
</g>
<g>
</g>
<g>
</g>
<g>
</g>
<g>
</g>
<g>
</g>
<g>
</g>
<g>
</g>
<g>
</g>
</svg>
