<?xml version="1.0" encoding="iso-8859-1"?>
<!-- Generator: Adobe Illustrator 19.0.0, SVG Export Plug-In . SVG Version: 6.00 Build 0)  -->
<svg version="1.1" id="Capa_1" xmlns="http://www.w3.org/2000/svg" xmlns:xlink="http://www.w3.org/1999/xlink" x="0px" y="0px"
	 viewBox="0 0 512.001 512.001" style="enable-background:new 0 0 512.001 512.001;" xml:space="preserve">
<g>
	<g>
		<path d="M508.011,204.267c-1.721-5.755-8.273-8.491-13.559-5.64c-10.982,5.927-44.776,24.27-83.494,46.32
			c14.608-9.955,27.798-20.045,37.613-29.565c2.423-2.031,16.421-14.394,23.558-34.475c1.387-3.903-0.653-8.191-4.556-9.579
			c-3.901-1.388-8.19,0.652-9.579,4.556c-6.13,17.251-18.62,27.644-19.132,28.063c-0.227,0.185-0.408,0.348-0.613,0.55
			C407.125,234.765,336.895,272.762,304,289.732c48.008-100.053,107.97-179.38,124.947-201.009
			c8.937,9.738,26.802,31.717,31.319,56.039c0.757,4.073,4.675,6.761,8.743,6.005c4.073-0.757,6.761-4.671,6.005-8.743
			c-6.142-33.066-32.024-60.743-39.808-68.437c-3.939-3.896-10.463-3.614-14.012,0.779c-8.218,10.181-37.272,47.117-70.821,100.632
			c25.553-52.078,44.599-108.372,2.118-147.821c-3.036-2.818-7.782-2.642-10.6,0.393c-2.818,3.035-2.643,7.78,0.393,10.6
			c8.899,8.263,13.859,17.286,17.594,27.704c18.047,50.419-54.218,161.831-84.765,207.475
			c-15.415-173.348,12.708-238.699,20.993-253.741c9.906,1.69,18.367,3.817,18.462,3.842c4.012,1.011,8.094-1.416,9.109-5.433
			c1.016-4.016-1.416-8.094-5.431-9.109c-0.46-0.117-11.41-2.873-23.549-4.721c-3.639-0.554-7.296,1.082-9.321,4.155
			c-5.478,8.306-26.284,46.149-29.421,144.245C252.87,54.356,232.127,16.573,226.669,8.291c-1.997-3.033-5.474-4.643-9.081-4.174
			c-7.235,0.923-23.291,4.475-24.333,4.742c-45.763,11.879-68.707,57.756-55.203,104.775c4.12,18.154,12.887,39.62,23.553,61.377
			c-33.536-53.489-62.576-90.424-70.803-100.618c-2.892-4.021-9.829-5.025-14.097-0.695c-10.342,10.489-43.84,47.732-40.948,86.784
			c1.764,32.44,24.27,52.118,27.694,54.931c10.106,9.786,23.776,20.181,38.891,30.415c-39.268-22.319-73.706-40.934-84.817-46.904
			c-5.299-2.846-11.854-0.092-13.543,5.644c-10.851,36.873,3.745,66.342,5.293,69.306c16.07,33.834,49.644,55.231,83.953,56.158
			L93.229,330c0.648,0.03,1.553,0.056,2.696,0.08l-40.386,1.411c-7.18,0.247-11.471,8.137-7.802,14.304
			c14.363,24.17,38.816,47.531,67.425,47.53c4.151-0.001,8.392-0.492,12.699-1.545c20.959-5.18,65.08-35.722,83.077-48.612
			c0.604-0.433,1.127-0.942,1.563-1.509c2.553-2.983,2.708-6.366,1.94-8.771c-0.496-1.6-1.352-2.871-2.393-3.866
			c1.815-0.913,3.16-2.35,3.972-3.756c2.326-3.909,1.415-8.857-2.217-11.858c-0.187-0.155-0.382-0.3-0.582-0.436
			c-8.738-5.896-18.495-12.177-28.866-18.649c13.524,7.207,24.787,12.914,31.712,16.362c0.52,0.258,1.066,0.455,1.63,0.588
			c0.951,0.238,1.832,0.341,2.644,0.341c3.147,0,5.254-1.535,6.337-2.602c2.279-2.17,3.83-6.069,2.159-10.13
			c-0.037-0.09-0.075-0.179-0.116-0.268c-6.284-13.726-12.801-27.074-19.431-39.982c10.993,17.299,20.01,30.528,24.074,36.402
			c0.242,0.35,0.514,0.679,0.811,0.982c2.049,2.091,4.468,2.926,6.695,2.926c0.994,0,1.951-0.167,2.818-0.463
			c3.896-1.205,6.04-4.464,6.478-7.683c0.033-0.185,0.06-0.372,0.078-0.562c3.173-31.726,4.965-60.136,5.702-85.538
			c0.732,25.447,2.527,53.912,5.716,85.705c0.01,0.09,0.02,0.18,0.032,0.269c0.576,4.213,3.438,6.705,5.886,7.653
			c1.166,0.458,2.312,0.663,3.409,0.663c3.113,0,5.827-1.653,7.445-3.868c0.082-0.105,0.162-0.214,0.238-0.325
			c4.095-5.911,13.221-19.283,24.329-36.758c-6.636,12.904-13.16,26.25-19.452,39.976c-0.197,0.43-0.352,0.873-0.462,1.323
			c-0.172,0.596-0.323,1.322-0.381,2.144c-0.199,2.898,0.939,5.681,3.122,7.633c1.745,1.561,3.943,2.396,6.21,2.396
			c0.554-0.001,1.112-0.051,1.669-0.151c0.921-0.167,1.804-0.473,2.628-0.91c6.84-3.405,17.852-8.982,31.061-16.011
			c-10.227,6.39-19.85,12.588-28.481,18.404c-0.353,0.238-0.682,0.504-0.983,0.793c-2.393,2.135-4.03,5.767-2.787,9.877
			c0.152,0.506,0.358,0.994,0.613,1.456c0.857,1.552,2.336,3.168,4.326,4.127c-0.817,0.8-1.501,1.742-1.995,2.812
			c-1.176,2.55-1.154,5.45,0.055,7.949c0.417,0.865,0.957,1.645,1.609,2.328c0.353,0.388,0.748,0.742,1.182,1.054
			c17.443,12.522,60.346,42.281,82.529,48.585c1.2,0.379,5.804,1.67,12.628,1.67c15.727-0.001,43.238-6.861,68.022-47.563
			c1.744-2.862,1.839-6.475,0.247-9.426c-1.59-2.946-4.655-4.849-7.999-4.964l-47.34-1.634c6.194-0.05,10.63-0.117,12.532-0.206
			l0.001,0.03c0.527-0.023,13.027-0.646,28.449-6.498c3.37-1.126,36.029-12.896,53.47-50.917
			C504.722,269.752,518.676,239.873,508.011,204.267z M448.733,215.226c0.013-0.012,0.024-0.024,0.037-0.036
			c-0.017,0.017-0.032,0.032-0.048,0.047C448.726,215.233,448.729,215.23,448.733,215.226z M94.347,315.09
			c0.208,0.022,0.359,0.053,0.453,0.07C94.65,315.132,94.499,315.109,94.347,315.09z M124.281,377.212
			c-22.987,5.608-44.326-11.183-58.441-31.073l120.715-4.217C162.357,358.452,136.6,374.167,124.281,377.212z M189.085,315.067
			c-14.147,0.057-81.225,0.357-95.452-0.029c-28.832-0.854-57.278-18.995-70.869-47.729c-7.548-15.878-9.612-34.529-6.067-51.787
			C42.746,229.611,130.905,277.757,189.085,315.067z M73.088,203.916c-0.853-0.688-20.909-17.161-22.356-44.313
			C49.35,133.818,65.915,107.841,83.09,88.8c17.038,21.72,76.93,101.007,124.914,200.963
			C104.832,236.474,79.391,209.026,73.088,203.916z M236.772,273.351c-22.661-33.921-72.747-112.767-84.105-163.086
			c-0.039-0.178-0.103-0.44-0.164-0.649c-11.688-39.906,7.757-76.628,44.403-86.205c1.224-0.275,11.791-2.636,19.02-3.868
			C224.175,34.536,252.195,99.765,236.772,273.351z M446.02,346.187c-20.744,29.361-43.952,35.285-58.359,31.229
			c-13.206-3.708-38.683-19.252-62.308-35.394L446.02,346.187z M419.937,314.844c0.086-0.016,0.222-0.041,0.408-0.06
			C420.209,314.799,420.073,314.82,419.937,314.844z M420.879,314.741c-8.806,0.38-88.773,0.26-97.905,0.248
			c58.169-37.306,146.315-85.634,172.343-99.772C506.136,267.786,465.59,312.284,420.879,314.741z"/>
	</g>
</g>
<g>
	<g>
		<path d="M83.555,427.115H67.223c-0.53,0-0.959,0.429-0.959,0.959v30.46c0,0.53-0.43,0.959-0.959,0.959h-38.63
			c-0.53,0-0.959-0.429-0.959-0.959v-30.46c-0.002-0.529-0.431-0.959-0.961-0.959H8.474c-0.53,0-0.959,0.429-0.959,0.959v78.074
			c0,0.53,0.43,0.959,0.959,0.959h16.28c0.53,0,0.959-0.43,0.959-0.959c0-33.473-0.367-32.421,0.959-32.421
			c40.888,0,39.59-0.411,39.59,0.959v31.462c0,0.53,0.43,0.959,0.959,0.959h16.333c0.53,0,0.959-0.43,0.959-0.959v-78.074
			C84.514,427.544,84.085,427.115,83.555,427.115z"/>
	</g>
</g>
<g>
	<g>
		<path d="M173.734,427.123h-16.305c-0.53,0-0.959,0.429-0.959,0.959v46.976c0,14.114-4.322,19.991-19.4,19.991
			c-15.074,0-19.53-5.877-19.53-19.991v-46.976c-0.001-0.531-0.43-0.96-0.96-0.96h-16.161c-0.53,0-0.959,0.429-0.959,0.959
			c0,53.069-1.279,62.169,4.928,68.866c7.077,7.855,17.607,11.017,32.681,11.017c15.078,0,25.409-3.162,32.539-11.017
			c3.874-4.203,5.085-11.253,5.085-21.479v-47.385C174.693,427.552,174.263,427.123,173.734,427.123z"/>
	</g>
</g>
<g>
	<g>
		<path d="M234.465,427.673c-0.158-0.34-0.498-0.558-0.873-0.558h-18.075c-0.375,0-0.716,0.219-0.872,0.56
			c-37.883,82.657-37.046,79.433-34.91,79.433c17.56,0,17.637,0.38,18.034-0.599c7.543-18.618,7.119-18.443,8.119-18.443h36.314
			c0.387,0,0.735,0.232,0.885,0.589c7.796,18.617,7.366,18.453,8.366,18.453h18.143
			C271.681,507.108,272.669,510.521,234.465,427.673z M235.496,473.808H212.58c-0.683,0-1.147-0.694-0.887-1.325l11.258-27.272
			c0.324-0.786,1.435-0.793,1.769-0.011l11.658,27.272C236.648,473.104,236.184,473.808,235.496,473.808z"/>
	</g>
</g>
<g>
	<g>
		<path d="M393.155,427.116h-16.609c-0.422,0-0.795,0.276-0.918,0.68l-17.593,57.859c-0.274,0.902-1.549,0.909-1.833,0.01
			l-18.255-57.878c-0.126-0.399-0.496-0.671-0.915-0.671h-20.045c-0.432,0-0.811,0.289-0.925,0.706l-15.83,57.712
			c-0.252,0.918-1.542,0.948-1.837,0.043l-18.836-57.799c-0.129-0.395-0.497-0.662-0.912-0.662h-17.482
			c-0.665,0-1.128,0.659-0.902,1.285l28.155,78.074c0.362,0.999,0.066,0.633,21.674,0.633c1.05,0-0.102,3.094,16.012-56.524
			c0.251-0.928,1.559-0.951,1.843-0.033c18.354,59.41,17.135,56.557,18.18,56.557h20.939c0.413,0,0.779-0.264,0.91-0.655
			C395.676,423.557,395.055,427.116,393.155,427.116z"/>
	</g>
</g>
<g>
	<g>
		<path d="M469.414,506.148V494.15c0-0.53-0.43-0.959-0.959-0.959h-28.929c-13.993,0-20.202-5.029-20.598-18.622
			c-0.016-0.538,0.424-0.986,0.962-0.986h48.564c0.53,0,0.959-0.43,0.959-0.959v-12.036c0-0.53-0.43-0.959-0.959-0.959h-48.385
			c-0.559,0-1.01-0.481-0.96-1.038c1.05-11.842,7.633-17.52,20.417-17.52h28.929c0.53,0,0.959-0.429,0.959-0.959v-12.037
			c0-0.53-0.43-0.959-0.959-0.959h-29.304c-27.846,0-40.742,13.192-40.742,41.458c0,14.483,4.336,24.972,13.258,31.509
			c8.433,6.219,16.517,7.024,27.003,7.024C470.286,507.107,469.414,507.475,469.414,506.148z"/>
	</g>
</g>
<g>
	<g>
		<path d="M503.529,427.115h-17.092c-0.53,0-0.959,0.429-0.959,0.959c0,82.89-0.412,79.027,0.959,79.027
			c17.957,0,18.051,0.327,18.051-0.959v-78.068C504.488,427.544,504.059,427.115,503.529,427.115z"/>
	</g>
</g>
<g>
</g>
<g>
</g>
<g>
</g>
<g>
</g>
<g>
</g>
<g>
</g>
<g>
</g>
<g>
</g>
<g>
</g>
<g>
</g>
<g>
</g>
<g>
</g>
<g>
</g>
<g>
</g>
<g>
</g>
</svg>
