<?xml version="1.0" encoding="iso-8859-1"?>
<!-- Generator: Adobe Illustrator 19.0.0, SVG Export Plug-In . SVG Version: 6.00 Build 0)  -->
<svg version="1.1" id="Capa_1" xmlns="http://www.w3.org/2000/svg" xmlns:xlink="http://www.w3.org/1999/xlink" x="0px" y="0px"
	 viewBox="0 0 512.002 512.002" style="enable-background:new 0 0 512.002 512.002;" xml:space="preserve">
<g>
	<g>
		<path d="M413.229,160.953h-25.808c-4.152,0-7.518,3.366-7.518,7.518v86.921c-3.181-64.602-73.671-68.246-96.778-28.773v-16.18
			c0-4.152-3.366-7.518-7.518-7.518h-11.748v-20.049c0-4.152-3.366-7.518-7.518-7.518h-25.585c-4.152,0-7.518,3.366-7.518,7.518
			v99.713c0,17.502,11.656,36.339,37.249,36.339h15.12c4.152,0,7.518-3.366,7.518-7.518v-14.968
			c10.02,16.763,27.546,24.256,46.923,24.256c18.672,0,31.646-5.293,44.78-18.271c3.019-2.982,2.966-7.87-0.099-10.791
			c-0.12-0.115-15.828-15.079-15.951-15.191h13.726c3.712,0,6.788-2.693,7.399-6.231v13.205c0,19.943,11.882,32.532,32.6,34.542
			c4.42,0.428,8.243-3.05,8.243-7.482V168.47C420.747,164.319,417.381,160.953,413.229,160.953z M268.09,303.889h-7.603
			c-20.611,0-22.214-16.306-22.214-21.304v-92.195h10.55v20.049c0,4.152,3.366,7.518,7.518,7.518h11.748v5.629h-11.748
			c-4.152,0-7.518,3.366-7.518,7.518v49.901c0,10.238,6.271,16.598,16.366,16.598h2.901V303.889z M277.356,282.779
			c-1.988-0.475-11.845,0.007-13.36-0.314c-0.212-0.878-0.136,0.803-0.136-43.844c12.688,0,12.563,0.128,14.114-0.386
			C273.284,252.769,273.821,270.115,277.356,282.779z M307.564,261.406c-4.152,0-7.518,3.366-7.518,7.518
			c0,31.993,35.347,36.826,53.464,23.261l4.938,4.704c-7.114,5.519-15.321,8.77-28.399,8.77c-15.097,0-40.423-5.821-40.423-44.802
			c0-27.518,15.272-44.612,39.856-44.612c24.491-0.001,35.505,20.361,35.505,45.16H307.564z M348.693,276.441
			c-4.881,4.411-7.578,7.679-18.455,7.679c-6.753,0-11.487-2.722-13.713-7.679H348.693z M405.712,301.182
			c-7.311-2.82-10.773-8.608-10.773-17.766V175.988h10.773V301.182z"/>
	</g>
</g>
<g>
	<g>
		<path d="M108.599,203.421c2.786-1.101,4.761-3.811,4.761-6.989v-24.464c0-4.152-3.366-7.518-7.518-7.518H80.069
			c-4.152,0-7.518,3.366-7.518,7.518v24.464c0,3.192,1.994,5.914,4.801,7.003c-2.808,1.09-4.801,3.81-4.801,7.002l-0.014,75.099
			c0,19.979,11.91,32.569,32.675,34.543c4.418,0.419,8.228-3.06,8.228-7.483V210.439C113.441,207.232,111.428,204.5,108.599,203.421
			z M87.587,179.485h10.739v9.429H87.587V179.485z M98.407,303.328c-7.352-2.806-10.834-8.602-10.834-17.79l0.013-67.582h10.821
			V303.328z"/>
	</g>
</g>
<g>
	<g>
		<path d="M303.179,237.371c-2.046,4.499-2.893,8.237-3.126,13.792c-0.18,4.261,3.228,7.834,7.511,7.834
			c42.608,0,41.902,0.775,44.864-2.323c1.418-1.484,2.168-3.484,2.075-5.535C352.832,214.38,313.135,216.119,303.179,237.371z
			 M316.7,243.963c1.944-4.401,6.673-6.557,11.659-6.557c4.678,0,7.902,2.199,9.643,6.557H316.7z"/>
	</g>
</g>
<g>
	<g>
		<path d="M181.501,202.948l-52.859-0.027c-0.001,0-0.002,0-0.004,0c-1.993,0-3.905,0.792-5.314,2.2
			c-1.411,1.41-2.203,3.323-2.203,5.317v101.116c0,4.152,3.366,7.518,7.518,7.518h25.599c4.152,0,7.518-3.366,7.518-7.518V238.62
			h13.657c2.111,0,2.811,0.429,2.836,0.429c0.022,0.039,0.267,0.501,0.267,1.782v70.723c0,4.153,3.366,7.519,7.518,7.519h25.589
			c4.152,0,7.518-3.366,7.518-7.518v-70.872C219.137,223.275,209.28,202.948,181.501,202.948z M204.102,304.038h-10.554v-63.206
			c0-10.638-6.949-17.246-18.137-17.246h-21.174c-4.152,0-7.518,3.366-7.518,7.518v72.934h-10.564v-86.077l45.342,0.023
			c20.402,0,22.605,15.875,22.605,22.7V304.038z"/>
	</g>
</g>
<g>
	<g>
		<path d="M505.145,218.89c-4.076-0.798-8.023,1.863-8.819,5.938c-6.993,35.832-32.716,62.327-58.041,75.182v-11.583
			c35.854-23.051,54.712-60.806,48.234-97.245c-5.177-29.54-24.364-53.33-55.485-68.796c-49.984-24.84-127.802-27.049-205.836-9.338
			c117.28-31.019,258.444-12.017,271.846,79.231c0.604,4.108,4.426,6.951,8.53,6.346c4.108-0.603,6.949-4.422,6.346-8.53
			C493.039,61.519,259.06,54.85,112.15,144.279c-2.24,1.364-3.608,3.798-3.608,6.421v9.593c0,2.621,1.364,5.052,3.601,6.417
			c2.236,1.365,5.023,1.467,7.353,0.269c139.06-71.494,335.074-71,352.217,26.816c5.595,31.467-11.988,64.434-44.794,83.988
			c-2.275,1.356-3.669,3.809-3.669,6.457v27.248c0,5.246,5.228,8.844,10.107,7.058c32.166-11.799,68.674-44.462,77.726-90.837
			C511.878,223.634,509.22,219.686,505.145,218.89z"/>
	</g>
</g>
<g>
	<g>
		<path d="M417.34,324.731c-81.729,48.696-226.443,69.279-310.277,43.849c-100.258-30.41-79.259-120.959-39.63-164.183
			c2.49-2.716,1.977-4.17,1.977-18.425c0-2.951-1.727-5.629-4.415-6.848c-2.688-1.218-5.84-0.751-8.06,1.196
			C9.688,221.758-8.682,271.389,3.808,323.842C23.499,406.867,126.5,429.641,211.797,427.638c4.151-0.098,7.436-3.541,7.339-7.692
			c-0.097-4.151-3.53-7.424-7.692-7.339c-106.57,2.516-178.714-31.975-193.007-92.24c-7.172-30.115-3.197-58.595,11.807-85.129
			c-8.71,20.425-13.425,44.321-8.927,68.591c16.341,87.472,134.278,96.479,223.481,88.251
			c56.931-5.281,124.099-24.596,168.872-48.089v20.445c-47.395,24.97-114.678,41.36-167.652,46.156
			c-4.135,0.377-7.181,4.035-6.803,8.17c0.377,4.135,4.039,7.183,8.17,6.803c55.043-4.964,127.25-22.49,177.421-50.047
			c2.404-1.321,3.898-3.846,3.898-6.589v-37.739C428.706,325.366,422.344,321.748,417.34,324.731z"/>
	</g>
</g>
<g>
</g>
<g>
</g>
<g>
</g>
<g>
</g>
<g>
</g>
<g>
</g>
<g>
</g>
<g>
</g>
<g>
</g>
<g>
</g>
<g>
</g>
<g>
</g>
<g>
</g>
<g>
</g>
<g>
</g>
</svg>
