<svg id="图层_1" data-name="图层 1" xmlns="http://www.w3.org/2000/svg" viewBox="0 0 113.18 27.03"><title>╘╦╢»╞╖┼╞LOGO</title><path d="M109.7,2.15c.35-.06.63-.25.63-.64s-.24-.67-.79-.67h-.91V3.26h.2V2.14h.64l.72,1.12h.24ZM109.35,2h-.52V1h.67c.29,0,.62.11.62.48S109.72,2,109.35,2Z"/><path d="M109.37,0a2.05,2.05,0,1,0,2,2.05A2,2,0,0,0,109.37,0Zm0,3.92a1.84,1.84,0,0,1-1.85-1.87,1.84,1.84,0,1,1,3.68,0A1.83,1.83,0,0,1,109.38,3.92Z"/><rect x="45.64" y="6.67" width="4.32" height="19.92"/><rect x="45.64" y="0.29" width="4.32" height="4.98"/><path d="M16,6.67V8.6a10.05,10.05,0,1,0,0,16.2v1.79H20.3V6.67ZM10.05,22.61A5.91,5.91,0,1,1,16,16.7,5.92,5.92,0,0,1,10.05,22.61Z"/><path d="M108.31,13a3.43,3.43,0,0,0-3.7-2.82c-1.1,0-3.52.4-3.52,1.83,0,2.16,3.65,2.3,4.55,2.38,5.86.51,7.54,3.09,7.54,6.12a6.18,6.18,0,0,1-2.75,5.09c-1.38,1-4.2,1.39-5.93,1.39-3.84,0-7.73-2.09-8.24-6.81h4.32c.22,2.19,2.56,3.07,3.88,3.07,2.42,0,4.11-1,4.11-2.23,0-1.87-1.77-2.27-4.29-2.56-1.45-.17-4.15-.63-5.31-1.58s-2.3-2.12-2.31-4.1c0-3.5,2.72-6.24,8.06-6.26,4.47,0,7.84,2.6,8,6.46Z"/><path d="M38.1.29V8.6a10.05,10.05,0,1,0,0,16.2v1.79h4.32V.29ZM32.17,22.61a5.91,5.91,0,1,1,5.9-5.91A5.92,5.92,0,0,1,32.17,22.61Z"/><path d="M90.25,6.67V8.6a10.05,10.05,0,1,0,0,16.2v1.79h4.33V6.67ZM84.32,22.61a5.91,5.91,0,1,1,5.91-5.91A5.91,5.91,0,0,1,84.32,22.61Z"/><path d="M67.84.29V8.6a10.05,10.05,0,1,0,0,16.2v1.79h4.32V.29ZM61.91,22.61a5.91,5.91,0,1,1,5.9-5.91A5.92,5.92,0,0,1,61.91,22.61Z"/></svg>