<svg id="图层_1" data-name="图层 1" xmlns="http://www.w3.org/2000/svg" viewBox="0 0 107.21 40.82"><title>╘╦╢»╞╖┼╞LOGO</title><polygon points="27.7 0.05 35.52 0.05 22.71 40.42 13.07 40.42 0 0.26 7.91 0.29 18.13 31.14 27.7 0.05"/><rect x="27.72" width="72.6" height="6.95"/><path d="M36.78,40.37H29.71L37.61,13h7.31l7.91,27.35H45.64L44.8,36.8H37.61ZM43.6,31l-2.39-9.82L38.93,31Z"/><polygon points="62.05 13.02 69.95 27.89 69.71 21.64 69.71 13.02 76.66 13.02 76.66 40.37 69.83 40.37 61.93 25.51 62.29 31.75 62.29 40.37 55.34 40.37 55.34 13.02 62.05 13.02"/><path d="M99.18,20.9H92.35a2,2,0,0,0-1.08-1.79,2.47,2.47,0,0,0-1.79-.59c-1.6,0-2.4.54-2.4,1.63s1.44,1.94,4.31,2.83q8.39,2.52,8.39,8.62-.24,9.07-10.3,9.22-8.74-.45-9.83-8.92H86.6a4.23,4.23,0,0,0,1.2,2.23,3.41,3.41,0,0,0,2,.59c2.07,0,3.11-.64,3.11-1.93q0-1.63-4.19-2.82-8.51-2.53-8.51-8.92.24-8.48,9.47-8.78Q98.09,12.44,99.18,20.9Z"/><path d="M106.89,12.3h-.32a2.21,2.21,0,1,1-2.2-2.21,2.19,2.19,0,0,1,2.2,2.21h.64a2.84,2.84,0,1,0-2.84,2.84,2.84,2.84,0,0,0,2.84-2.84Z"/><path d="M106,13.68v.09h-.74l-1.07-1.4h-.26v.89c0,.28.1.42.41.41v.09H103v-.09c.3,0,.43-.13.39-.46v-2c0-.28-.1-.42-.39-.41v-.07h1.26c.75,0,1.14.27,1.15.78s-.27.68-.82.76l.93,1.16A.5.5,0,0,0,106,13.68Zm-2.07-2.59v1.12c.71,0,1.06-.2,1.06-.66s-.26-.62-.78-.62C104,10.92,103.87,11,103.89,11.09Z"/></svg>