<svg id="图层_1" data-name="图层 1" xmlns="http://www.w3.org/2000/svg" viewBox="0 0 131.16 22.47"><title>╘╦╢»╞╖┼╞LOGO</title><path d="M88.62,6a5.51,5.51,0,0,1,4.28,2l.07.09a1.49,1.49,0,0,1,.12.14h0a3.39,3.39,0,0,0,2.58,1.16A3.23,3.23,0,0,0,99,6.32a3,3,0,0,0-.87-2.1c-2.29-2.65-5-4.17-9.51-4.17C81.47.05,76.1,4.69,76.1,11.21s5.37,11.26,12.52,11.26a12,12,0,0,0,9.52-3.89h0a2.94,2.94,0,0,0,.82-2,3.17,3.17,0,0,0-3.26-3.06,3.34,3.34,0,0,0-2.46,1.06,6.18,6.18,0,0,1-4.61,2c-3.27,0-5.1-2.22-5.1-5.35S85.35,6,88.62,6ZM59.68,16.71c-3.23,0-5.22-2.22-5.22-5.4s2-5.4,5.22-5.4,5.15,2.17,5.15,5.4-1.93,5.4-5.15,5.4Zm0-16.66C52.58.05,47,4.75,47,11.31s5.54,11.16,12.64,11.16,12.57-4.65,12.57-11.16S66.77.05,59.68.05Zm54.37,8.53c-3.12-.65-4.56-.8-4.56-2,0-.86.8-1.26,2.47-1.26a7.33,7.33,0,0,1,4.41,1.61h0a2.83,2.83,0,0,0,1.93.73A2.75,2.75,0,0,0,121.13,5a2.58,2.58,0,0,0-.94-2A11.5,11.5,0,0,0,111.9.05C107,.05,103,2,103,6.87c0,4.49,3.49,6.11,6.61,6.86,3.71.91,5.16.91,5.16,2.07,0,.91-.76,1.32-3.12,1.32a8.35,8.35,0,0,1-5-1.72l.07.06h0a3,3,0,0,0-4,.12,2.58,2.58,0,0,0-.45,3.14l.06.11a2.2,2.2,0,0,0,.17.25l.14.16a1.37,1.37,0,0,0,.17.17.83.83,0,0,0,.15.11c2,1.69,4.86,2.95,9.24,2.95,7.2,0,9.39-3.23,9.39-7.18,0-4.53-4.18-6-7.52-6.71ZM12.52,6a5.54,5.54,0,0,1,4.28,2l.07.09s.08.09.11.14h0a3.4,3.4,0,0,0,2.59,1.16A3.23,3.23,0,0,0,22.9,6.32,3,3,0,0,0,22,4.23C19.74,1.57,17,.05,12.52.05,5.37.05,0,4.69,0,11.21S5.37,22.47,12.52,22.47A12,12,0,0,0,22,18.58h0a3,3,0,0,0,.81-2,3.16,3.16,0,0,0-3.25-3.06,3.31,3.31,0,0,0-2.46,1.06,6.2,6.2,0,0,1-4.61,2c-3.28,0-5.11-2.22-5.11-5.35S9.24,6,12.52,6"/><path d="M43.45,1.44A5.83,5.83,0,0,0,39.89.9a9.64,9.64,0,0,0-5.74,2.71v.14a.51.51,0,0,0,0-.13h0v0a3.73,3.73,0,0,0-7.41.18V19A3.73,3.73,0,0,0,34.15,19V14.81c0-5.65,3.47-7.07,5.42-7.11A13,13,0,0,0,42.44,8a3.52,3.52,0,0,0,3-4.07,3.5,3.5,0,0,0-2-2.48"/><path d="M123.28,1.29h.1V.75a3.33,3.33,0,0,1,0-.34.43.43,0,0,1,.07-.2.29.29,0,0,1,.16-.15.46.46,0,0,1,.23-.06.44.44,0,0,1,.32.13.28.28,0,0,1,.12.2,1.56,1.56,0,0,1,0,.35v.61h.35a.5.5,0,0,1,.31.09.31.31,0,0,1,.1.23.26.26,0,0,1-.15.25,1,1,0,0,1-.43.07h-.18V3.56a2.45,2.45,0,0,0,0,.32.25.25,0,0,0,.08.18.28.28,0,0,0,.22.07l.22,0,.23,0a.25.25,0,0,1,.2.09.23.23,0,0,1,.09.21.37.37,0,0,1-.24.33,1.94,1.94,0,0,1-.72.11,1.31,1.31,0,0,1-.67-.14.65.65,0,0,1-.3-.39,2.76,2.76,0,0,1-.07-.66V1.93h-.13a.5.5,0,0,1-.31-.09.29.29,0,0,1-.1-.23.26.26,0,0,1,.11-.23.5.5,0,0,1,.33-.09"/><path d="M129,3.08V4.26a.57.57,0,0,1-.14.42.49.49,0,0,1-.36.14.48.48,0,0,1-.35-.14.57.57,0,0,1-.13-.42V2.85c0-.23,0-.4,0-.53a.53.53,0,0,0-.14-.3.42.42,0,0,0-.33-.12.6.6,0,0,0-.61.3,1.93,1.93,0,0,0-.15.85V4.26a.56.56,0,0,1-.14.42.44.44,0,0,1-.34.14.51.51,0,0,1-.36-.14.6.6,0,0,1-.13-.42V1.71a.47.47,0,0,1,.12-.37.41.41,0,0,1,.32-.13.44.44,0,0,1,.32.12.43.43,0,0,1,.14.34v.08a1.77,1.77,0,0,1,.52-.41,1.44,1.44,0,0,1,.62-.13,1.32,1.32,0,0,1,.62.14,1,1,0,0,1,.42.4,1.74,1.74,0,0,1,.51-.41,1.39,1.39,0,0,1,.61-.13,1.51,1.51,0,0,1,.67.14,1,1,0,0,1,.42.42,1.78,1.78,0,0,1,.12.76V4.26a.53.53,0,0,1-.14.42.45.45,0,0,1-.35.14.51.51,0,0,1-.36-.14.66.66,0,0,1-.13-.42V2.77a2.77,2.77,0,0,0,0-.46A.49.49,0,0,0,130,2a.48.48,0,0,0-.35-.12.65.65,0,0,0-.36.1.77.77,0,0,0-.26.28,2.14,2.14,0,0,0-.1.8"/></svg>