<svg id="图层_1" data-name="图层 1" xmlns="http://www.w3.org/2000/svg" viewBox="0 0 116.77 28.71"><title>╘╦╢»╞╖┼╞LOGO</title><path d="M99.14,11.61A9.1,9.1,0,0,0,97.82,9a9.21,9.21,0,0,0-4.73-3.43,9.32,9.32,0,0,0-5.66,0,9.32,9.32,0,0,0-6.05,11.71,9.49,9.49,0,0,0,1.32,2.62A9.39,9.39,0,0,0,84.81,22a9.63,9.63,0,0,0,2.62,1.32,9.32,9.32,0,0,0,5.66,0A9.55,9.55,0,0,0,95.72,22a9.34,9.34,0,0,0,2.1-2.11,9.32,9.32,0,0,0,1.76-5.45A9.09,9.09,0,0,0,99.14,11.61Zm-5.26,4A3.79,3.79,0,0,1,88,17.52a3.9,3.9,0,0,1-.86-.86,3.79,3.79,0,0,1,0-4.44,3.9,3.9,0,0,1,.86-.86,3.77,3.77,0,0,1,3.38-.54,3.84,3.84,0,0,1,1.92,1.4A3.75,3.75,0,0,1,93.88,15.59Z"/><path d="M95.22.47a2.5,2.5,0,0,0-.92,2.77,2.45,2.45,0,0,0,.36.7,2.29,2.29,0,0,0,.56.56,2.44,2.44,0,0,0,2.21.35,2.55,2.55,0,0,0,.7-.35,2.7,2.7,0,0,0,.56-.56A2.5,2.5,0,0,0,99,1.73a2.87,2.87,0,0,0-.35-.7,3,3,0,0,0-.56-.56A2.47,2.47,0,0,0,95.92.12a2.55,2.55,0,0,0-.7.35"/><path d="M97.92.75a2.23,2.23,0,0,1,.8,1.09,2.18,2.18,0,0,1,0,1.29,2.34,2.34,0,0,1-.31.61,2.21,2.21,0,0,1-1.09.79,2.1,2.1,0,0,1-1.9-.31,2.14,2.14,0,0,1-.79-2.38,2.47,2.47,0,0,1,.3-.61A2.21,2.21,0,0,1,96,.44a2.14,2.14,0,0,1,1.3,0,2,2,0,0,1,.6.31"/><path d="M96.83,2.59a.33.33,0,0,1,.29.16,1,1,0,0,1,.09.45,1.11,1.11,0,0,0,.05.34h.34a.56.56,0,0,1-.07-.17,2,2,0,0,1,0-.32c0-.22,0-.45-.25-.55l-.1,0c.19-.06.41-.28.41-.42a.62.62,0,0,0-.26-.68.49.49,0,0,0-.24-.08H95.77V3.54h.29v-1h.77"/><path d="M96.73,1.53c.15,0,.46,0,.52.21a.43.43,0,0,1-.16.53.39.39,0,0,1-.24.07c-.2,0-.52,0-.79,0V1.53h.67"/><path d="M6,23.32V5.65h7.24a2.37,2.37,0,0,1,.46.11l.44.09a2.19,2.19,0,0,1,1.22.78,2.84,2.84,0,0,1,.22.34,3.21,3.21,0,0,1,.19.45,5.52,5.52,0,0,1,.14.58,5.46,5.46,0,0,1,.05.78,9.63,9.63,0,0,1-.08,1.06,4.58,4.58,0,0,1-.21.85,3.18,3.18,0,0,1-.27.61,3.22,3.22,0,0,1-.31.45,2.57,2.57,0,0,1-2.11.89H7.46v5.58h3.91a3.91,3.91,0,0,1,1.88.39,3.22,3.22,0,0,1,.79.58,3.46,3.46,0,0,1,.87,1.67,3.67,3.67,0,0,1,.18.82v7H21V20.34a7,7,0,0,0-.32-2A3.48,3.48,0,0,0,20,17a3.34,3.34,0,0,0-1.06-.84,3.75,3.75,0,0,0-1.33-.36A5.77,5.77,0,0,0,19.12,15a5.65,5.65,0,0,0,1.19-1.15,7,7,0,0,0,.93-1.7A11.69,11.69,0,0,0,22,9.43,8,8,0,0,0,21.8,6.5a10.16,10.16,0,0,0-1.09-2.66,6.89,6.89,0,0,0-1.4-1.75A6.52,6.52,0,0,0,17.64,1a7.62,7.62,0,0,0-2.1-.63A17.85,17.85,0,0,0,12.84.2H0L0,23.32H6"/><path d="M40.8,18.2H32.72a7.73,7.73,0,0,1-2-.24,5,5,0,0,1-1-.34,3.1,3.1,0,0,1-.74-.5,3.26,3.26,0,0,1-.55-.62,3.31,3.31,0,0,1-.39-.8,3.47,3.47,0,0,1-.08-2.1,3.52,3.52,0,0,1,.46-1A3.58,3.58,0,0,1,30,11.34a4.31,4.31,0,0,1,1.35-.26c.22,0,.45,0,.68,0h3l-3,5.64h5.49L40.83,11V5.48H32a15,15,0,0,0-2.34.13,10.79,10.79,0,0,0-2.16.59,9.26,9.26,0,0,0-2.11,1.14,8.68,8.68,0,0,0-1.82,1.9,8.9,8.9,0,0,0-1.2,2.48A8.66,8.66,0,0,0,22,14.49a8.19,8.19,0,0,0,.52,2.7,10.76,10.76,0,0,0,1.12,2.16,7.69,7.69,0,0,0,.87,1.06,10.4,10.4,0,0,0,.79.7,6.4,6.4,0,0,0,1.09.72,14.22,14.22,0,0,0,1.9.87,10.35,10.35,0,0,0,2.13.52,17.12,17.12,0,0,0,2.28.09H40.8V18.2"/><path d="M59.73,18.19H51.62a7.29,7.29,0,0,1-2-.22,5.05,5.05,0,0,1-1-.34,3.1,3.1,0,0,1-.74-.5,3.21,3.21,0,0,1-.54-.62,3.32,3.32,0,0,1-.4-.8,3.4,3.4,0,0,1-.08-2.05,3.64,3.64,0,0,1,.47-1,3.53,3.53,0,0,1,1.62-1.29,4.56,4.56,0,0,1,1.35-.26c.22,0,.45,0,.67,0,1.1,0,2.2,0,3.3,0,0,0,0,0,0,0l-.56.94c-.55.92-1.67,2.78-2.76,4.63,1.86,0,3.72,0,5.59,0L59.73,11V5.48H50.94a15,15,0,0,0-2.34.13,10.89,10.89,0,0,0-2.17.59,9,9,0,0,0-2.1,1.14,8.57,8.57,0,0,0-3,4.38,9,9,0,0,0-.37,2.77,8.46,8.46,0,0,0,.52,2.7,10.74,10.74,0,0,0,1.13,2.16,7,7,0,0,0,.87,1.06,8.78,8.78,0,0,0,.79.7,6.4,6.4,0,0,0,1.09.72,13.14,13.14,0,0,0,1.9.87,11.71,11.71,0,0,0,4.4.62h8.1V18.19"/><path d="M68.79,23.32a16.72,16.72,0,0,0,4-.41,8.81,8.81,0,0,0,2-.76,9.61,9.61,0,0,0,2.24-1.66,8.76,8.76,0,0,0,1.71-2.34,8.57,8.57,0,0,0,.87-2.75,12,12,0,0,0,.05-2.65,6.83,6.83,0,0,0-.27-1.46,8.14,8.14,0,0,0-.39-1A6.76,6.76,0,0,0,76.89,7.6a8.52,8.52,0,0,0-1.16-.72,9.8,9.8,0,0,0-1.52-.62,11.75,11.75,0,0,0-2-.46,16.29,16.29,0,0,0-2.49-.18H67.84v5.53h3a3.68,3.68,0,0,1,.89.11,3.78,3.78,0,0,1,.82.28,3.26,3.26,0,0,1,.7.46,3.53,3.53,0,0,1,.58.64,3.87,3.87,0,0,1,.62,1.64,3.42,3.42,0,0,1-.74,2.47,2.8,2.8,0,0,1-.56.58,4.18,4.18,0,0,1-.81.46,5.21,5.21,0,0,1-2.13.39H66.45V1.27H61V23.32h7.76"/><path d="M106.19,23.32V16.79h2a3.26,3.26,0,0,1,1.19.26,2.7,2.7,0,0,1,1,.68,3.06,3.06,0,0,1,.59,1,4.2,4.2,0,0,1,.3,1.12,12.52,12.52,0,0,1,.17,1.79v1.69h5.25V20a12.69,12.69,0,0,0-.13-1.83,6.89,6.89,0,0,0-.3-1.26,5.38,5.38,0,0,0-.38-.86,3.66,3.66,0,0,0-.43-.65,3.9,3.9,0,0,0-.48-.51,4.3,4.3,0,0,0-.59-.43c-.24-.16-.53-.34-.82-.51a6.07,6.07,0,0,0,1.78-1.39,5.7,5.7,0,0,0,1.11-1.94,7,7,0,0,0,.29-2.24V5.73h-5.25a9.94,9.94,0,0,1-.13,2.18,4.32,4.32,0,0,1-.51,1.45,4.66,4.66,0,0,1-.85,1.07,3.3,3.3,0,0,1-2.26,1h-1.58l0-10.18h-5.48V23.32h5.5"/></svg>