<svg id="图层_1" data-name="图层 1" xmlns="http://www.w3.org/2000/svg" viewBox="0 0 89.63 35.97"><title>╘╦╢»╞╖┼╞LOGO</title><path d="M88.45,14.63c0-.14,2.47-1.28.26-2.71L46,.06a8.36,8.36,0,0,0-3.76.42L.87,11.92s-2.34,1.43.65,2.57L42.91,26.06a3.56,3.56,0,0,0,3.63,0c-1.82,1.15,41.91-11.29,41.91-11.43ZM77,14.2c0-.11,1.85-.93.2-2L45.46,3.68a6.53,6.53,0,0,0-2.8.31L11.84,12.24s-1.74,1,.49,1.85l30.81,8.35a2.72,2.72,0,0,0,2.7,0C44.49,23.27,77,14.3,77,14.2Z" style="fill-rule:evenodd"/><path d="M65.69,14c0-.06,1.17-.61.13-1.28L45.61,7.11a3.83,3.83,0,0,0-1.78.21l-19.6,5.41s-1.1.67.31,1.22l19.59,5.47a1.68,1.68,0,0,0,1.72,0C45,20,65.69,14.08,65.69,14Zm-12.28-.56s.49-.25.06-.53l-8.54-2.37a1.61,1.61,0,0,0-.74.08l-8.27,2.29s-.46.28.13.51l8.26,2.31a.7.7,0,0,0,.73,0c-.36.24,8.37-2.25,8.37-2.29Z" style="fill-rule:evenodd"/><path d="M7.21,32.45A1.08,1.08,0,0,0,8,33.87l2.64,0s.63-.11.52-1.16l0-3.29s0-.78,1-.94l3.24,0s.87.37.87.8l0,5.92s-.29.68-.74.7l-11.86,0a2.25,2.25,0,0,1-1.58-1.6L2,29.39a1.28,1.28,0,0,1,1-.91H6.3s.89.2.93,1l0,1.16s0,1.78,0,1.85Z" style="fill-rule:evenodd"/><path d="M32.67,28.46a3.1,3.1,0,0,1,3.12,2.14v4.61a1.25,1.25,0,0,1-.94.62H32.3s-.62-.25-.77-.66l0-3.84a1.2,1.2,0,0,0-.89-.71.81.81,0,0,0-.88.67l0,3.79a1.09,1.09,0,0,1-1,.73H26.29a1.37,1.37,0,0,1-.71-.71l.05-3.74a1.14,1.14,0,0,0-1-.74s-.79-.09-.85.94v3.61a.82.82,0,0,1-.76.68H20.42s-.7-.27-.78-.75V29.48a1.31,1.31,0,0,1,1.22-1l10.69,0s1.1,0,1.12,0Z" style="fill-rule:evenodd"/><path d="M40,28.36a1.2,1.2,0,0,0-.95.78l0,6.14s.39.62.91.64l12,0s1.83-.66,1.67-2.06a2.58,2.58,0,0,0-1.2-1.66s1.12-1.12,1-2a3.12,3.12,0,0,0-2.27-1.92H43.14s-3.08.07-3.1,0ZM44,30H48.1a.87.87,0,0,1,.82.9h0a.87.87,0,0,1-.82.91H44a.87.87,0,0,1-.82-.91h0A.87.87,0,0,1,44,30Zm0,2.76h4.23a.88.88,0,0,1,.84.92h0a.88.88,0,0,1-.84.92H44a.88.88,0,0,1-.84-.92h0a.88.88,0,0,1,.84-.92Z" style="fill-rule:evenodd"/><path d="M67.06,28.36s2.54-.18,3.46,1.56a2.29,2.29,0,0,1-.78,2.6s-.75.39,0,1c0,0,1.27.88,1.25,1.65,0,0,.15.64-.86.77l-3.15,0s-.65-.07-.86-.45l-1-1.09s.08-.29-1.92-.63H61.58s-.72.23-.68.84c0,0,.14.72-.2,1,0,0-.14.36-.78.38l-2.89,0s-.61,0-.81-.77l0-5.88a1.12,1.12,0,0,1,.78-.91h8.25s1.74,0,1.78,0Zm-6,1.56h4.35a.94.94,0,0,1,.89,1h0a.94.94,0,0,1-.89,1H61.09a.93.93,0,0,1-.88-1h0a.93.93,0,0,1,.88-1Z" style="fill-rule:evenodd"/><path d="M75.87,28.38h9.66A2.64,2.64,0,0,1,88,31.13v2.06A2.64,2.64,0,0,1,85.53,36H75.87a2.64,2.64,0,0,1-2.5-2.76V31.13a2.64,2.64,0,0,1,2.5-2.75ZM79.71,30h2a1.6,1.6,0,0,1,1.52,1.66v1.24a1.61,1.61,0,0,1-1.52,1.67h-2a1.6,1.6,0,0,1-1.51-1.67V31.61A1.59,1.59,0,0,1,79.71,30Z" style="fill-rule:evenodd"/></svg>