<svg id="图层_1" data-name="图层 1" xmlns="http://www.w3.org/2000/svg" viewBox="0 0 106.15 39.98"><title>╘╦╢»╞╖┼╞LOGO</title><path d="M9.36,27.26H2.75A2.93,2.93,0,0,0,0,30.12v7S-.18,39.35,2.56,40h6.8V37.16H3v-7H9.36V27.26Z" style="fill-rule:evenodd"/><path d="M20.89,27.26H15.82a2.92,2.92,0,0,0-2.74,2.86v7s-.19,2.19,2.55,2.82h5.74c2.75-.63,2.56-2.82,2.56-2.82v-7a2.92,2.92,0,0,0-2.74-2.86Zm0,9.9H16.12v-7h4.77v7Z" style="fill-rule:evenodd"/><path d="M27.8,27.26h7.51a3.05,3.05,0,0,1,2.41,2.86V40h-3V30.12H30.81V40h-3V27.26Z" style="fill-rule:evenodd"/><polygon points="40.42 27.26 44.44 39.98 48.69 39.98 52.82 27.26 49.48 27.26 46.58 37.16 43.77 27.26 40.42 27.26 40.42 27.26" style="fill-rule:evenodd"/><path d="M64.88,27.26H58.45a3,3,0,0,0-2.93,2.86l0,7a2.83,2.83,0,0,0,3,2.82h6.43V37.16H58.45V35h6.43V32.32l-6.43-.08V30.12h6.43V27.26Z" style="fill-rule:evenodd"/><path d="M69.2,27.26h7s3,0,3,2.79v2.19a3,3,0,0,1-2.26,2.83L79.56,40H76.45l-2.56-5.06H72.16V40h-3V27.26Zm3,2.79h4.06v2.19H72.16V30.05Z" style="fill-rule:evenodd"/><path d="M92.52,27.26H85.46S83,27.85,83,30.05v2.19a2.43,2.43,0,0,0,2.43,2.67H90v2.25H83V40H90.5a2.91,2.91,0,0,0,2.44-2.82l0-2.6a2.78,2.78,0,0,0-2.33-2.32H86.05V30.05h6.47V27.26Z" style="fill-rule:evenodd"/><path d="M106.15,27.26H99.79a2.92,2.92,0,0,0-3,2.79l0,7.17A2.81,2.81,0,0,0,99.79,40h6.36V37.22H99.79V35h6.36V32.24H99.79V30.05h6.36V27.26Z" style="fill-rule:evenodd"/><path d="M53.07,0A12.23,12.23,0,0,1,65.34,12.15a12.27,12.27,0,0,1-24.53,0A12.23,12.23,0,0,1,53.07,0Zm.07,1.84A10.39,10.39,0,0,1,63.55,12.15a10.41,10.41,0,0,1-20.81,0A10.38,10.38,0,0,1,53.14,1.84Z" style="fill:#010101;fill-rule:evenodd"/><path d="M53.13,3.57l-2,5.89h-6.4l4.93,3.68L48,19.31l5.1-3.7,5.27,3.71-1.64-6.18,4.83-3.62-6.41-.06s-2-6-2-5.89Z" style="fill:#010101;fill-rule:evenodd"/><polygon points="53.14 17.41 53.28 17.41 53.49 17.95 53.7 17.41 53.84 17.41 53.84 18.1 53.74 18.1 53.74 17.55 53.53 18.1 53.44 18.1 53.24 17.57 53.24 18.1 53.14 18.1 53.14 17.41 53.14 17.41" style="fill:#010101;fill-rule:evenodd"/><polygon points="52.5 17.41 52.5 17.49 52.74 17.49 52.74 18.1 52.84 18.1 52.84 17.49 53.08 17.49 53.08 17.41 52.5 17.41 52.5 17.41" style="fill:#010101;fill-rule:evenodd"/></svg>