<svg id="图层_1" data-name="图层 1" xmlns="http://www.w3.org/2000/svg" viewBox="0 0 79.01 41.28"><title>╘╦╢»╞╖┼╞LOGO</title><path d="M13.24,25.27a1.08,1.08,0,1,0,1.13,1.08A1.07,1.07,0,0,0,13.24,25.27Zm0,1.85a.77.77,0,1,1,.79-.77A.76.76,0,0,1,13.24,27.12Z"/><polygon points="24.14 21.49 18.69 21.49 19.31 12.01 15.77 21.49 10.71 21.49 18.74 0.07 24.13 0.07 23.51 9.67 27.12 0.07 32.18 0.07 24.14 21.49"/><polygon points="24.8 21.49 32.84 0.07 37.9 0.07 29.87 21.49 24.8 21.49"/><path d="M10.12,14.11C3.05,22.42-3.63,33.47,2.27,38.57c5.71,4.93,12.85,2,17.72.06S78.68,13.31,78.68,13.31c.52-.26.42-.58-.23-.42-.26.06-58.59,15.87-58.59,15.87C12.46,30.84,4,26.31,10.12,14.11Z"/><path d="M13.44,26.43a.28.28,0,0,0,.28-.31c0-.28-.19-.35-.49-.35h-.44v1.16h.29v-.49h.05l.27.49h.33Zm-.19-.19h-.17V26h.14c.09,0,.19,0,.19.12S13.35,26.24,13.25,26.24Z"/><path d="M64.15,0A1.07,1.07,0,0,0,63,1.08a1.12,1.12,0,0,0,2.24,0A1.07,1.07,0,0,0,64.15,0Zm0,1.85a.75.75,0,0,1-.78-.77.78.78,0,0,1,1.56,0A.76.76,0,0,1,64.15,1.85Z"/><path d="M64.34,1.16a.27.27,0,0,0,.28-.31c0-.28-.18-.35-.49-.35h-.44V1.66H64V1.17H64l.26.49h.34ZM64.15,1H64V.7h.14c.08,0,.18,0,.18.12S64.26,1,64.15,1Z"/><path d="M60.81,3.64,62.17.07H46.72l-5.3,6.42L43.87.07H38.74l-8,21.42h5.06l3.4-9,.24,9,15.54,0,1.47-4.13h-5.9l1.94-5.19h4.87l1.49-4H54l1.67-4.51ZM44.49,20.06,44.17,8.89,51.82.49Z"/></svg>