<svg id="图层_1" data-name="图层 1" xmlns="http://www.w3.org/2000/svg" viewBox="0 0 131.14 36.34"><title>╘╦╢»╞╖┼╞LOGO</title><path d="M49.11,4.36c2.54-.48,4.9.58,5.24,2.36s-1.47,3.63-4,4.11-4.9-.57-5.23-2.36,1.46-3.63,4-4.11Z" style="fill-rule:evenodd"/><path d="M4.31,6.09l.14,20.27s.29,5.9,5.32,7.54c0,0,6.47,2.31,12.65-4.17,0,0,5.17,6.84,11.71,3.6,0,0,7.12-2.44,8.77-13.08,0,0,1.65-8.69-2.73-20H28.88L29,6.09h3.59s1.15-.28,1.58,2.52a36.23,36.23,0,0,1,.36,12.79s-.79,5.32-4.67,5c0,0-3.23.29-3.23-4.67L26.59.28,14.66.2,14.8,6l5,.07-.07,16s0,4.81-4.89,5c0,0-3.31.43-3.37-3.73S11.35.28,11.35.28H0L.07,6.09Z" style="fill-rule:evenodd"/><path d="M45.47,13.57s-.21-1.47,4.09-1.68c0,0,2.94-.31,3.56,1.58V29.89s0,1.37,1.68.84l3-2.42.1-20.94S57.84.73,65.49.1c0,0,5.76-1.26,8.38,5.05,0,0,.52,7.16-2,10.11,0,0-4.09,5.79-5.55,6l-.11,8.53s.21,1.46,2.41.2c0,0,4.09-3.15,5.45-5.78,0,0,1.26-4.64.42-8l6.92-.32a19.14,19.14,0,0,0,4.71,8.84,5.39,5.39,0,0,1,.63,1.9s2.51.42,3-.64c0,0-.63-8.73,8.28-10.2a8.93,8.93,0,0,1,7.44,3.05s.31.63,4.82-1.58c0,0,4.09-2.21,5.76,2.84,0,0,2.52-3,6-2.84,0,0,5-.84,5.76,3.79l-.21,9.58s.73,2.42,2.31,2.94c0,0,3.35,1-1.15,2.53h-5.14s-4-.11-4.61-5.58c0,0,0-4.32.63-5.47,0,0-2.41-2.11-3.57.1v9.58s0,1.26-4.5,1.58c0,0-3.46,0-4.09-.63,0,0-1.37-.84,1.78-2.53,0,0,.94-6.31.53-8.21,0,0,.42-3.36-2.62-2.74,0,0,2.62,5.9-1.78,10.85,0,0-2.41,4.2-9.65,2.63a8.9,8.9,0,0,1-5.55-5.89,12.71,12.71,0,0,1-2.94.73s.42,4.1-7.23,5.79c0,0-6.28.53-8.9-3.05,0,0-3.14,2.73-6.61,2.52,0,0-4.92.21-6.49-4,0,0-4.82,4.21-8.17,4.21a4.39,4.39,0,0,1-4.41-3.79c.64,3.9,0-18.63,0-18.63Zm20.7-7.48a2.15,2.15,0,0,1,2.48-1.28C72,4.88,70.74,10,70.74,10c-.19,3.76-4.44,7-4.44,7l-.13-11Zm8.32,23.59c.69,1.52,3.55,1.4,3.55,1.4,4.32-.83,2.1-3.89,2.1-3.89a19.32,19.32,0,0,1-2.23-3.83l-3.42,6.32ZM98.77,21.9a4.41,4.41,0,1,1-4.16,4.4,4.28,4.28,0,0,1,4.16-4.4Z" style="fill-rule:evenodd"/></svg>