<svg id="图层_1" data-name="图层 1" xmlns="http://www.w3.org/2000/svg" viewBox="0 0 95.97 40.61"><title>╘╦╢»╞╖┼╞LOGO</title><path d="M79.05,13.45s4.77.82,8-5.77c0,0,1.76-5.91,7.06-7,0,0,3.46-.23,1,2.92,0,0-4,1.23-5.56,3.14,0,0-1.18.54-2.27,3.23a9.71,9.71,0,0,1-4.55,5.29,12.89,12.89,0,0,1,2.11,7.6s-.84,1.69,2.44,4A3.92,3.92,0,0,0,87.94,29a1.45,1.45,0,0,1,.34,2,1.64,1.64,0,0,0-.09,1.38s.34,1.53-1.17.84a4.1,4.1,0,0,1-2.11-2.07V28.24s-4.55-2.3-7.41-8.67c0,0-.25-3.15-5.21-3.61,0,0-7.83.54-13-5.37A3.69,3.69,0,0,1,56,11.74s-3.53-.08-4.54-1l-1.27-.54s-1,0-.84.69a1.27,1.27,0,0,1-1.77.23c-.92-.77-1.34-2.84,2.11-3.15a14,14,0,0,1,3,.08s1.6-.54-.25-1.77c0,0-1,.08-1.86.23,0,0-1.43-.53-1.59-1a.85.85,0,0,1-1.18-.77s-.51-.84.17-1l.67-.69V2.53A7.61,7.61,0,0,0,51.16.15l1.18.47L53.69,0l.76,1.31a15.54,15.54,0,0,1,7.23,2.45S72,10.59,72.62,11.05a27.63,27.63,0,0,0,6.43,2.4Z" style="fill-rule:evenodd"/><path d="M16.79,21h6.47V37a1.28,1.28,0,0,0,1.14,1.08,1,1,0,0,0,1.06-1.12l-.08-16h6.23l-.13,18.26s-.4,1.33-1.34,1.37l-11.72,0s-1.38-.3-1.59-1.45c.21,1.15,0-18.11,0-18.15Z" style="fill-rule:evenodd"/><path d="M.19,20.91l13,0s1.45.32,1.53,1.35l0,12s-.94,1.57-1.84,1.47H6.45l-.07,4.74H0S.23,21,.19,20.91ZM7.39,23h0a1,1,0,0,1,1,.92v8.54a1,1,0,0,1-1,.92h0a1,1,0,0,1-1-.92V23.9a1,1,0,0,1,1-.92Z" style="fill-rule:evenodd"/><path d="M39.84,40.55l0-16.77A.83.83,0,0,1,40.8,23a.89.89,0,0,1,1,.8l0,16.7,6.24,0,0-16.67a1,1,0,0,1,1-.8s.89.13,1,.77L50,40.55l6.24,0,0-18.14s.07-1.07-1.52-1.47-19.69,0-19.69,0a1.87,1.87,0,0,0-1.55,1.44l0,18.21s6.28-.07,6.35,0Z" style="fill-rule:evenodd"/><path d="M58.7,22.38a1.69,1.69,0,0,1,1.39-1.45H71.83A1.36,1.36,0,0,1,73,22.41l.08,18.12-6.28.08L67,36.15s0-.77-1-.81a1,1,0,0,0-1.12.78l.08,4.41-6.24,0s.08-18.16.08-18.19Zm7.2.81h0a1,1,0,0,1,1,.92v8.2a1,1,0,0,1-1,.91h0a1,1,0,0,1-1-.91v-8.2a1,1,0,0,1,1-.92Z" style="fill-rule:evenodd"/></svg>