<?xml version="1.0" encoding="iso-8859-1"?>
<!-- Generator: Adobe Illustrator 19.0.0, SVG Export Plug-In . SVG Version: 6.00 Build 0)  -->
<svg version="1.1" id="Capa_1" xmlns="http://www.w3.org/2000/svg" xmlns:xlink="http://www.w3.org/1999/xlink" x="0px" y="0px"
	 viewBox="0 0 512 512" style="enable-background:new 0 0 512 512;" xml:space="preserve">
<g>
	<g>
		<path d="M350.672,416.557c-7.662-8.872-26.417-6.219-31.495,7.764c-1.629,4.48-6.413,23.772-7.277,31.745
			c-0.931,8.645,5.603,16.179,15.818,16.179c9.428,0,16.785-5.86,18.873-13.335c1.459-4.658,4.949-17.454,6.841-28.447
			C353.819,428.215,355.338,421.957,350.672,416.557z M332.16,454.806c0,0,0,0.002-0.001,0.002
			c-0.831,2.361-4.051,2.616-5.285,2.359c0.893-7.137,5.281-24.635,6.402-27.72c0,0,0-0.002,0.001-0.003
			c0.798-2.198,3.244-3.218,5.609-2.955C337.13,437.473,334.095,447.955,332.16,454.806z"/>
	</g>
</g>
<g>
	<g>
		<path d="M504.5,245.998c4.143,0,7.5-3.357,7.5-7.5c0-26.666,0-218.242,0-224.967C512,6.07,505.929,0,498.468,0
			c-13.257,0-217.054,0-225.743,0c-0.663,0-1.302,0.094-1.915,0.256C270.13,0.089,269.421,0,268.694,0H15.889
			C7.127,0,0,7.128,0,15.89v483.137C0,506.18,5.819,512,12.973,512h481.141c9.862,0,17.886-8.023,17.886-17.886V273.501
			c0-4.143-3.357-7.5-7.5-7.5c-4.143,0-7.5,3.357-7.5,7.5v220.613c0,1.591-1.294,2.885-2.885,2.885H332.581
			c12.427-0.957,25.308-4.859,35.075-12.841c0.001,0,0.002-0.001,0.003-0.002c4.704-3.847,8.834-8.601,12.273-13.996l-3.189,14.596
			c-1.023,4.687,2.557,9.103,7.327,9.103h32.803c3.525,0,6.574-2.455,7.327-5.898l10.943-50.069c0.465-2.126,1.396-3.816,2.654-4.84
			c0.18-0.146,0.366-0.279,0.558-0.397c0.819-0.502,1.737-0.738,2.619-0.703c0.294,0.012,0.585,0.053,0.866,0.125
			c0.044,0.012,0.084,0.023,0.12,0.034c0.009,0.083,0.017,0.183,0.021,0.302c0.012,0.355-0.009,0.877-0.122,1.602l-11.092,50.743
			c-1.022,4.679,2.549,9.103,7.327,9.103h32.417c3.525,0,6.574-2.455,7.327-5.898l14.86-67.986c0.004-0.02,0.009-0.04,0.013-0.06
			c5.382-25.616-22.379-41.814-50.409-26.356c-1.466-1.93-3.697-2.975-5.981-2.975h-32.963c-3.524,0-6.574,2.454-7.327,5.898
			l-5.354,24.503c-3.799-18.768-21.299-34.687-48.264-34.687c-1.202,0-2.386,0.03-3.562,0.074c-0.15,0.005-0.306,0.003-0.455,0.009
			c12.448-5.01,24.823-10.088,37.055-15.202c9.733-4.066,5.38-18.833-5.007-16.941c-39.175,7.083-78.823,15.078-118.032,23.796
			c2.461-10.981,3.719-13.512,1.216-16.977c52.391-19.862,104.482-41.206,155.248-63.62c9.398-4.15,4.756-18.41-5.28-16.241
			c-88.236,19.079-176.729,42.284-263.697,69.132c4.406-1.548,8.792-3.1,13.157-4.655c98.35-35.067,195.728-75.244,289.435-119.416
			c8.851-4.179,4.094-17.706-5.473-15.34c-76.78,19.141-153.721,41.44-229.594,66.523c89.813-35.493,178.585-75.188,264.086-118.09
			c8.778-4.4,3.562-17.793-5.886-15.102c-68.084,19.467-136.287,41.437-203.661,65.586c6.956-3.039,13.911-6.104,20.831-9.184
			c3.785-1.684,5.488-6.116,3.805-9.901c-1.684-3.785-6.118-5.487-9.901-3.805c-76.187,33.884-155.711,65.87-238.341,95.312
			c119.382-59.497,243.555-112.47,371.387-158.028c-33.457,16.674-67.285,32.835-101.208,48.349
			c-3.767,1.723-5.424,6.173-3.701,9.94c1.722,3.767,6.172,5.427,9.94,3.701c61.603-28.171,122.893-58.472,182.226-90.087v142.366
			C496.999,242.641,500.356,245.998,504.5,245.998z M439.698,415.239c11.743-16.25,42.393-17.899,38.343,1.557l-13.565,62.061
			h-17.063v0c0.065-0.296,9.164-41.9,9.215-42.199c1.622-9.66-2.443-16.787-10.953-19.086c-2.683-0.693-5.421-0.811-8.073-0.37
			C438.403,416.7,439.118,416.042,439.698,415.239z M409.398,405.585h17.697c-0.273,1.272-0.537,2.47-0.794,3.605
			c-0.787,3.476,0.979,7.024,4.228,8.492c0.428,0.257,1.865,0.652,2.994,0.665c-6.94,2.794-11.437,9.026-13.035,16.342
			l-9.654,44.169h-17.448L409.398,405.585z M408.95,15.001h3.56c-6.238,2.862-12.479,5.746-18.714,8.65
			C398.86,20.774,403.915,17.888,408.95,15.001z M447.301,15.689c-94.635,53.236-194.374,103.886-299.872,151.212
			C245.17,111.917,345.294,61.44,447.301,15.689z M368.376,15.001h10.231c-55.979,31.627-113.452,62.359-174.846,93.102
			c52.814-31.537,107.814-62.696,163.816-92.608C367.857,15.346,368.12,15.177,368.376,15.001z M312.326,15.49
			c0.245-0.151,0.477-0.317,0.701-0.489h4.769c-17.312,9.986-34.716,19.874-52.194,29.632
			C281.129,34.808,296.714,25.088,312.326,15.49z M15.001,15.89c0-0.491,0.398-0.889,0.888-0.889h232.904
			C225.576,31.23,202.377,47.762,179.619,64.3c-3.626,2.637-4.56,7.654-2.125,11.423c1.497,2.315,3.945,3.665,6.514,3.846
			c-16.573,10.969-33.018,22.019-49.296,33.127c-3.674,2.508-4.769,7.469-2.493,11.293c2.276,3.823,7.158,5.227,11.113,3.192
			c0.294-0.151,0.591-0.304,0.886-0.455c-18.633,11.519-37.115,23.159-55.419,34.907c-3.723,2.387-4.927,7.113-2.801,10.996
			c2.126,3.882,6.757,5.411,10.774,3.563c7.141-3.293,14.288-6.614,21.429-9.961c-23.882,13.65-47.542,27.527-70.922,41.601
			c-3.883,2.337-5.271,7.153-3.229,11.203c2.042,4.05,6.741,5.796,10.928,4.063c13.834-5.724,27.666-11.548,41.5-17.475
			c-27.452,14.418-54.639,29.159-81.475,44.181V15.89z M15.001,346.617c6.2-2.013,12.404-4.048,18.609-6.104
			c-6.223,2.463-12.424,4.939-18.609,7.433V346.617z M15.001,391.393c2.707-0.83,5.437-1.67,8.186-2.521
			c-2.793,0.98-5.518,1.94-8.186,2.885V391.393z M15.001,407.678c5.523-1.969,11.272-3.997,17.358-6.123l-4.425,19.834
			c-4.435,1.318-8.728,2.583-12.933,3.813V407.678z M15.001,440.827c3.023-0.879,6.08-1.773,9.196-2.69l-0.008,0.038
			c-3.087,0.942-6.154,1.885-9.188,2.821V440.827z M15.001,456.702c1.796-0.558,3.605-1.118,5.429-1.68l-5.429,24.334V456.702z
			 M15.001,497L15.001,497v-1.166c5.015-1.411,0.189-0.055,7.023-1.976h32.384c3.589,0,6.674-2.542,7.361-6.064
			c0.365-1.869,0.759-3.761,1.146-5.646c4.437-1.287,12.625-3.739,17.021-5.062l4.584,11.958c1.112,2.9,3.897,4.815,7.003,4.815
			h31.694c3.505,0,6.543-2.428,7.316-5.848l6.491-28.737c0.232-0.075,0.466-0.149,0.697-0.224l-5.724,25.678
			c-1.042,4.673,2.514,9.133,7.32,9.133H171.8c3.513,0,6.556-2.438,7.32-5.868l10.287-46.136c0.153-0.053,0.306-0.104,0.458-0.157
			l-9.552,43.036c-1.038,4.677,2.525,9.126,7.322,9.126h32.243c3.481,0,6.505-2.396,7.301-5.785l4.341-18.481l5.604,18.899
			c0.944,3.184,3.87,5.367,7.19,5.367h32.998c4.971,0,8.567-4.758,7.219-9.536l-1.357-4.815
			c8.565,12.147,21.755,16.373,36.471,17.492H15.001z M66.53,465.44c1.084-4.79,2.201-9.623,3.365-14.546l4.656,12.144
			C71.854,463.849,69.172,464.653,66.53,465.44z M217.393,386.91l3.1-13.967l17.686,0.002l-12.368,55.169
			c-0.455,2.03-0.011,4.162,1.071,5.791c-1.779,1.047-3.051,2.835-3.501,4.752l-9.442,40.198h-16.953L217.393,386.91z
			 M200.792,389.996c0.235-0.246,0.464-0.498,0.686-0.752c0.013-0.015,0.027-0.029,0.041-0.044l-0.145,0.656
			C201.18,389.902,200.986,389.949,200.792,389.996z M193.685,424.501c-0.146,0.051-0.293,0.101-0.44,0.152l4.098-18.38
			c0.136-0.033,0.273-0.066,0.409-0.099L193.685,424.501z M271.921,439.563l5.818-7.068c-1.657,5.963-2.642,12.006-2.714,18.083
			L271.921,439.563z M342.414,401.299c22.115-0.001,33.871,13.731,34.054,27.286c0.017,1.368-0.025,2.728-0.093,4.083
			c-0.817,16.178-7.594,31.194-18.213,39.876c-13.022,10.637-34.353,11.415-48.662,7.64c-23.807-6.273-19.555-33.419-18.461-38.8
			l0.056-0.273C294.764,422.95,306.646,401.299,342.414,401.299z M312.169,380.679c-7.987,3.147-15.987,6.257-23.985,9.33h-20.344
			C282.585,386.793,297.374,383.673,312.169,380.679z M280.933,405.01l-23.086,28.047c-1.561,1.896-2.094,4.438-1.428,6.802
			l10.993,38.998h-17.492l-12.046-40.616c-0.225-0.759-0.63-1.547-0.942-2.018c0.68-0.401,1.463-1.063,1.975-1.682l24.462-29.531
			H280.933z M253.74,393.119l-6.457,7.795l1.499-6.687C250.433,393.856,252.086,393.488,253.74,393.119z M337.398,311.698
			c-39.078,16.19-78.668,31.663-118.321,46.245h-4.602c-2.881,0-5.444,1.641-6.695,4.123c-1.365,0.496-2.732,0.99-4.098,1.484
			c-3.604-5.238-10.43-9.842-22.446-9.842c-0.233,0-0.458,0.014-0.689,0.019C232.503,338.367,284.911,324.318,337.398,311.698z
			 M181.235,368.708c8.008,0.001,10.558,3.085,10.895,5.055c0.007,0.067,0.008,0.133,0.017,0.2c0.012,0.096,0.025,0.189,0.028,0.255
			c0,3.353-2.729,9.027-12.961,9.027c-4.478,0-10.933-0.638-10.933-5.139C168.281,374.472,171.798,368.708,181.235,368.708z
			 M164.198,358.607c-2.471,1.661-4.563,3.657-6.226,5.876c-0.165-1.279-0.669-2.502-1.462-3.552
			C159.071,360.152,161.634,359.38,164.198,358.607z M150.868,397.995c0.168-0.058,0.336-0.114,0.505-0.172
			c-0.928,4.165-0.69,3.097-1.064,4.773c-0.17,0.044-0.34,0.088-0.51,0.132L150.868,397.995z M165.13,405.06h17.114l-16.454,73.797
			h-17.112L165.13,405.06z M146.637,419.069l-5.121,22.971c-0.214,0.07-0.429,0.139-0.644,0.208l5.203-23.032
			C146.262,419.167,146.45,419.118,146.637,419.069z M141.15,372.944l-17.81,78.842c0,0.002-0.001,0.003-0.001,0.005l-6.113,27.066
			H96.682l-21.455-55.96c-1.177-3.07-4.216-5.034-7.497-4.799c-0.001,0-0.001,0-0.002,0c-2.446,0.162-4.597,1.5-5.851,3.495
			c-1.643,2.598-12.354,51.133-13.614,57.264h-17.78l23.637-105.948h18.007v0.001h3.864c1.924,5.179,15.063,40.542,21.05,56.655
			c1.157,3.112,4.216,5.094,7.535,4.871c3.313-0.224,6.085-2.6,6.813-5.84c2.562-11.406,9.875-43.953,12.503-55.649L141.15,372.944z
			 M94.785,380.419c1.661-0.547,3.319-1.098,4.984-1.639c2.67-0.868,5.346-1.724,8.019-2.585l-4.929,21.935
			c-0.445,0.143-0.89,0.286-1.335,0.429L94.785,380.419z M363.653,245.713c-94.227,41.526-191.572,79.009-292.73,112.195H48.108
			c-3.513,0-6.555,2.438-7.32,5.867l-0.926,4.15c-8.404,2.662-16.727,5.266-24.86,7.772v-11.57
			C126.076,319.106,242.615,279.178,363.653,245.713z M387.727,183.318C268.294,239.297,144.154,288.674,15.001,330.819v-4.48
			C133.259,272.438,257.875,224.232,387.727,183.318z M52.79,293.024c-12.66,5.544-25.265,11.16-37.789,16.836v-3.5
			C27.594,302,40.194,297.554,52.79,293.024z M15.001,277.196v-6.593c19.714-7.314,39.438-14.841,59.137-22.564
			C54.271,257.592,34.536,267.322,15.001,277.196z M429.806,68.291c-109.663,58.068-221.49,109.91-336.72,156.09
			C202.653,166.369,314.66,114.44,429.806,68.291z M496.999,79.384c-4.257-0.364-103.441,33.46-186.733,65.969
			c63.282-30.324,125.9-62.655,186.733-96.42V79.384z M496.999,26.142c-47.827,17.926-95.735,37.11-143.269,57.364
			c42.231-22.073,84.158-45.018,125.176-68.505h18.093C496.999,19.615,496.999,21.579,496.999,26.142z"/>
	</g>
</g>
<g>
</g>
<g>
</g>
<g>
</g>
<g>
</g>
<g>
</g>
<g>
</g>
<g>
</g>
<g>
</g>
<g>
</g>
<g>
</g>
<g>
</g>
<g>
</g>
<g>
</g>
<g>
</g>
<g>
</g>
</svg>
