<?xml version="1.0" encoding="iso-8859-1"?>
<!-- Generator: Adobe Illustrator 19.0.0, SVG Export Plug-In . SVG Version: 6.00 Build 0)  -->
<svg version="1.1" id="Capa_1" xmlns="http://www.w3.org/2000/svg" xmlns:xlink="http://www.w3.org/1999/xlink" x="0px" y="0px"
	 viewBox="0 0 512 512" style="enable-background:new 0 0 512 512;" xml:space="preserve">
<g>
	<g>
		<path d="M220.813,217.896c-20.864,0-34.711,15.518-34.711,35.271c0,20.886,14.036,35.244,34.711,35.244
			c20.279,0,34.639-15.003,34.639-35.259C255.452,232.897,241.091,217.896,220.813,217.896z M220.823,275.513
			c-12.151,0-16.831-10.512-16.831-22.358c0-11.841,4.68-22.348,16.831-22.348c12.147,0,16.724,10.507,16.724,22.348
			C237.546,264.999,232.97,275.513,220.823,275.513z"/>
	</g>
</g>
<g>
	<g>
		<path d="M133.546,246.892c-1.683-18.425-13.569-28.947-31.514-28.947c-18.545,0-34.242,14.788-34.242,35.628
			c0,22.003,14.189,34.908,36.196,34.908c8.877,0,19.603-3.35,24.201-6.193c1.609-0.995,2.114-1.422,1.696-3.048l-2.872-8.133
			c-0.332-1.334-1.814-1.675-3.015-1.078c-5.441,2.675-11.3,5-17.579,5c-13.043,0-19.551-6.895-20.556-16.178h45.499
			c1.656,0,2.392-1.145,2.392-3.079C133.753,253.24,133.789,249.579,133.546,246.892z M85.838,246.617
			c1.362-9.2,7.793-15.748,16.766-15.748c8.518-0.001,14.638,5.438,14.638,15.748C117.242,246.617,97.501,246.617,85.838,246.617z"
			/>
	</g>
</g>
<g>
	<g>
		<path d="M185.468,218.92c-2.379-0.563-6.17-0.909-9.257-0.909c-13.137,0-21.161,3.013-26.309,9.651
			c-3.945,5.09-4.657,10.784-4.657,22.961c0,3.906,0,33.432,0,33.432c0.18,2.383,1.14,3.496,3.366,3.496h10.394
			c2.405,0,3.387-1.254,3.387-3.496c0,0,0-32.293,0-34.054c0-8.809-1.002-18.967,14.756-18.967c1.295,0,4.395,0.341,5.478,0.474
			c0.409,0.051,0.743,0.082,0.918,0.082c1.127,0,1.519-0.41,1.88-1.841l1.56-7.663C187.274,220.513,187.034,219.29,185.468,218.92z"
			/>
	</g>
</g>
<g>
	<g>
		<path d="M65.051,284.958c-5.092-13.429-15.93-27.133-22.042-32.922c5.596-5.975,15.742-17.516,20.176-30.692
			c0.653-1.938-0.553-2.422-1.553-2.422H50.448c-1.356,0-2.262,0.474-3.264,2.422c-6.024,11.357-11.445,18.056-13.779,20.47
			c-3.679-4.366-8.516-12.223-12.05-20.47c-0.769-1.788-1.581-2.422-3.136-2.422H3.831c-1.13,0-1.944,0.901-1.478,2.422
			c3.097,10.118,10.952,22.134,19.098,31.993c-10.379,9.35-17.639,21.791-21.281,31.784c-0.536,1.468,0.296,2.43,1.114,2.43h12.248
			c1.764,0,2.572-0.626,3.38-2.418c3.31-7.315,8.225-15.756,14.674-22.602c5.909,5.692,11.083,14.346,14.397,22.602
			c0.928,2.282,2.002,2.418,3.39,2.418h13.354C65.284,287.551,65.512,286.167,65.051,284.958z"/>
	</g>
</g>
<g>
	<g>
		<path d="M322.538,284.958c-5.097-13.429-15.936-27.133-22.039-32.922c5.593-5.975,15.74-17.516,20.172-30.692
			c0.655-1.938-0.554-2.422-1.556-2.422h-11.178c-1.357,0-2.266,0.474-3.268,2.422c-6.022,11.357-11.443,18.056-13.775,20.47
			c-3.682-4.366-8.518-12.223-12.055-20.47c-0.768-1.788-1.583-2.422-3.136-2.422h-14.387c-1.127,0-1.942,0.901-1.478,2.422
			c3.097,10.118,10.951,22.134,19.1,31.993c-10.378,9.35-17.637,21.791-21.28,31.784c-0.538,1.468,0.3,2.43,1.115,2.43h12.246
			c1.763,0,2.57-0.626,3.377-2.418c3.311-7.315,8.225-15.756,14.676-22.602c5.913,5.692,11.084,14.346,14.395,22.602
			c0.936,2.282,2.009,2.418,3.393,2.418h13.354C322.769,287.551,322.995,286.167,322.538,284.958z"/>
	</g>
</g>
<g>
	<g>
		<path d="M427.446,171.444h-0.002h-0.001c-0.001,0-0.002,0-0.003,0c-46.574,0.002-84.555,37.94-84.553,84.559
			c0.002,47.866,39.046,84.547,84.545,84.553c0.003,0,0.007,0,0.01,0h0.001h0.001c46.71,0,84.554-38.026,84.556-84.554V256v-0.001
			v-0.001C512,208.595,473.379,171.444,427.446,171.444z M445.512,188.839c1.877,4.939,1.761,12.558,1.446,17.831
			c-14.951-8.281-31.087-13.172-47.401-14.37C414.065,185.923,430.248,184.726,445.512,188.839z M444.91,323.333
			c8.574-7.553,16.638-17.193,23.262-28.056c3.106,5.247,4.825,9.794,5.302,12.806C465.395,315.231,455.658,320.543,444.91,323.333z
			 M489.14,288.061c-1.269,2.43-2.664,4.78-4.198,7.03c-2.3-5.203-5.609-10.732-9.742-16.148c-4.183-5.48-12.668-4.744-15.824,1.385
			c-12.942,25.124-31.871,40.178-44.677,44.036c-3.79-0.705-7.479-1.702-11.027-2.997c16.69-11.952,33.656-36.29,43.77-58.687
			c2.147-4.756,0.642-10.432-3.58-13.497c-6.108-4.436-12.448-8.444-18.846-11.914c-3.642-1.975-8.194-0.625-10.168,3.017
			c-1.975,3.641-0.625,8.193,3.016,10.169c4.91,2.663,9.791,5.68,14.545,8.99c-13.375,28.175-32.996,49.599-44.536,53.709
			c-23.535-16.347-34.846-45.388-28.011-73.553c8.018-3.476,18.808-2.538,27.329-0.79c4.057,0.833,8.021-1.782,8.854-5.84
			c0.832-4.058-1.783-8.021-5.84-8.854c-7.478-1.534-16.162-2.384-23.747-1.52c2.589-4.708,5.708-9.085,9.275-13.052
			c3.485-1.308,9.129-2.536,15.932-2.536c23.72,0,42.694,9.04,54.437,16.625c6.006,3.879,14.004,0.176,14.946-6.909
			c0.876-6.589,1.383-14.49,0.916-21.072c2.95,1.694,5.764,3.597,8.423,5.69c4.036,10.148,3.156,28.9,1.499,39.994
			c-0.427,2.855,0.332,5.814,2.081,8.116c9.462,12.467,15.34,26.087,15.34,35.545C489.308,285.803,489.244,286.934,489.14,288.061z
			 M496.948,258.014c-2.668-5.377-6.017-10.839-9.977-16.215c0.869-6.373,1.309-12.864,1.309-19.325c0-0.048,0-0.096,0-0.144
			C494.255,233.084,497.316,245.207,496.948,258.014z"/>
	</g>
</g>
<g>
</g>
<g>
</g>
<g>
</g>
<g>
</g>
<g>
</g>
<g>
</g>
<g>
</g>
<g>
</g>
<g>
</g>
<g>
</g>
<g>
</g>
<g>
</g>
<g>
</g>
<g>
</g>
<g>
</g>
</svg>
